<?xml version="1.0" encoding="UTF-8" standalone="no"?>
<!-- Created with Inkscape (http://www.inkscape.org/) -->

<svg
   viewBox="0 0 167 92"
   version="1.1"
   id="svg6"
   sodipodi:docname="empty_rflask.svg"
   width="167"
   height="92"
   inkscape:version="1.2 (dc2aedaf03, 2022-05-15)"
   xmlns:inkscape="http://www.inkscape.org/namespaces/inkscape"
   xmlns:sodipodi="http://sodipodi.sourceforge.net/DTD/sodipodi-0.dtd"
   xmlns="http://www.w3.org/2000/svg"
   xmlns:svg="http://www.w3.org/2000/svg">
  <defs
     id="defs10" />
  <sodipodi:namedview
     id="namedview8"
     pagecolor="#ffffff"
     bordercolor="#666666"
     borderopacity="1.0"
     inkscape:showpageshadow="2"
     inkscape:pageopacity="0.0"
     inkscape:pagecheckerboard="0"
     inkscape:deskcolor="#d1d1d1"
     showgrid="false"
     inkscape:zoom="8.216"
     inkscape:cx="34.74927"
     inkscape:cy="60.55258"
     inkscape:window-width="2560"
     inkscape:window-height="1400"
     inkscape:window-x="-12"
     inkscape:window-y="-12"
     inkscape:window-maximized="1"
     inkscape:current-layer="svg6" />
  <defs
     id="defs1034" />
  <g
     inkscape:label="Layer 1"
     inkscape:groupmode="layer"
     id="layer1">
    <path
       id="rect306-9"
       style="fill:#dbdbdb;stroke:#808080"
       d="M 5.4946361,12.185251 H 159.34468 V 87.085928 H 5.4946361 Z" />
    <path
       id="rect3482-3"
       style="fill:#4d4d4d;stroke-width:0.264583"
       d="M 2.8919161,4.9554513 H 162.52581 V 12.474438 H 2.8919161 Z" />
    <path
       id="rect6448-3"
       style="fill:none;fill-opacity:0;stroke:#808080"
       d="M 7.1426561,72.422348 H 81.175746 v 11.56767 H 7.1426561 Z" />
    <path
       id="rect6448-5-8"
       style="fill:none;fill-opacity:0;stroke:#808080"
       d="M 7.1426561,57.422348 H 81.175746 v 11.56767 H 7.1426561 Z" />
    <path
       id="rect6448-5-5-46"
       style="fill:none;fill-opacity:0;stroke:#808080"
       d="m 83.642646,57.422348 h 74.033104 v 11.56767 H 83.642646 Z" />
    <path
       id="rect6448-5-5-4-4"
       style="fill:none;fill-opacity:0;stroke:#808080"
       d="m 83.642646,72.422348 h 74.033104 v 11.56767 H 83.642646 Z" />
    <path
       id="rect8853-5"
       style="fill:none;fill-opacity:0;stroke:#808080;stroke-linejoin:round"
       d="m 36.142656,60.422348 h 16.76813 v 0.97133 h -16.76813 z" />
    <path
       id="rect8853-6-5"
       style="fill:none;fill-opacity:0;stroke:#808080;stroke-linejoin:round"
       d="m 112.64265,60.422348 h 16.76814 v 0.97133 h -16.76814 z" />
    <path
       id="rect8853-6-1-9"
       style="fill:none;fill-opacity:0;stroke:#808080;stroke-linejoin:round"
       d="m 112.64265,75.422348 h 16.76814 v 0.97133 h -16.76814 z" />
    <path
       id="rect8853-0-9"
       style="fill:none;fill-opacity:0;stroke:#808080;stroke-linejoin:round"
       d="m 36.142656,75.422348 h 16.76813 v 0.97133 h -16.76813 z" />
    <path
       id="rect9193-2"
       style="fill-opacity:0;stroke:#4d4d4d;stroke-linejoin:round"
       d="M 8.0973761,15.800138 H 156.88655 v 37.59494 H 8.0973761 Z" />
    <path
       id="rect9197-8"
       style="fill:#999999;stroke:#4d4d4d;stroke-linejoin:round"
       d="M 11.278486,18.981258 H 153.41627 v 30.50973 H 11.278486 Z" />
    <path
       style="fill:#30006c;fill-opacity:1;stroke:#4d4d4d;stroke-width:1;stroke-linecap:butt;stroke-linejoin:round;stroke-dasharray:none;stroke-opacity:1"
       d="m 8.2419661,16.089338 3.4702999,3.18111"
       id="path16216-4" />
    <path
       style="fill:#30006c;fill-opacity:1;stroke:#4d4d4d;stroke-width:1;stroke-linecap:butt;stroke-linejoin:round;stroke-dasharray:none;stroke-opacity:1"
       d="m 8.4633561,53.053698 2.7350499,-3.553"
       id="path16220-0" />
    <path
       style="fill:#30006c;fill-opacity:1;stroke:#4d4d4d;stroke-width:1;stroke-linecap:butt;stroke-linejoin:round;stroke-dasharray:none;stroke-opacity:1"
       d="m 156.616,53.079258 -3.24627,-3.70637"
       id="path16222-6" />
    <path
       style="fill:#30006c;fill-opacity:1;stroke:#4d4d4d;stroke-width:1;stroke-linecap:butt;stroke-linejoin:round;stroke-dasharray:none;stroke-opacity:1"
       d="m 156.84605,15.913298 -3.52744,3.22071"
       id="path16224-3" />
    <path
       style="fill:#949494;fill-opacity:1;stroke:#565656;stroke-width:0.273251;stroke-linecap:butt;stroke-linejoin:round;stroke-dasharray:none;stroke-opacity:1"
       d="m 9.5190061,52.576028 c 0.11279,-0.15224 0.5954799,-0.78637 1.0726499,-1.40917 l 0.86757,-1.13236 70.88965,-5.3e-4 70.889654,-5.3e-4 1.11911,1.2784 c 0.61552,0.70312 1.16163,1.33753 1.21359,1.40981 0.0913,0.12699 -2.36647,0.13141 -73.081424,0.13141 H 9.3139261 Z"
       id="path16295-7" />
    <path
       style="fill:#949494;fill-opacity:1;stroke:#565656;stroke-width:0.273251;stroke-linecap:butt;stroke-linejoin:round;stroke-dasharray:none;stroke-opacity:1"
       d="m 155.13576,50.577538 -1.20856,-1.37574 -0.002,-14.9399 -0.002,-14.9399 1.19631,-1.10082 c 0.65797,-0.60546 1.21111,-1.08602 1.22921,-1.06793 0.0181,0.0181 0.0247,7.85551 0.0147,17.41647 l -0.0182,17.38356 z"
       id="path21196-7" />
    <path
       style="fill:#8c8c8c;fill-opacity:1;stroke:#565656;stroke-width:0.276366;stroke-linecap:butt;stroke-linejoin:round;stroke-dasharray:none;stroke-opacity:1"
       d="m 8.4604161,34.795128 c 0,-14.70151 0.0161,-17.61265 0.0975,-17.56367 0.0536,0.0323 0.54452,0.47164 1.09085,0.97634 l 0.9933299,0.91765 0.002,15.25548 0.002,15.25549 -1.0612599,1.39054 c -0.58368,0.7648 -1.07531,1.39054 -1.09251,1.39054 -0.0172,0 -0.0313,-7.93006 -0.0313,-17.62237 z"
       id="path21198-2" />
    <path
       style="fill:#8c8c8c;fill-opacity:1;stroke:#565656;stroke-width:0.273251;stroke-linecap:butt;stroke-linejoin:round;stroke-dasharray:none;stroke-opacity:1"
       d="m 10.478256,17.407308 -1.1255599,-1.02878 36.5334799,-0.0182 c 20.09342,-0.01 52.98532,-0.01 73.093114,0 l 36.55961,0.0182 -1.12685,1.03025 -1.12684,1.03024 -70.840694,-0.002 -70.84069,-0.002 z"
       id="path21476-6" />
  </g>
</svg>
