<?xml version="1.0" encoding="UTF-8" standalone="no"?>
<!-- Created with Inkscape (http://www.inkscape.org/) -->

<svg
   width="605.14301mm"
   height="409.49826mm"
   viewBox="0 0 605.143 409.49827"
   version="1.1"
   id="svg5"
   xml:space="preserve"
   inkscape:version="1.2.2 (732a01da63, 2022-12-09)"
   sodipodi:docname="chemgymrl.svg"
   xmlns:inkscape="http://www.inkscape.org/namespaces/inkscape"
   xmlns:sodipodi="http://sodipodi.sourceforge.net/DTD/sodipodi-0.dtd"
   xmlns="http://www.w3.org/2000/svg"
   xmlns:svg="http://www.w3.org/2000/svg"><sodipodi:namedview
     id="namedview7"
     pagecolor="#ffffff"
     bordercolor="#000000"
     borderopacity="0.25"
     inkscape:showpageshadow="2"
     inkscape:pageopacity="0.0"
     inkscape:pagecheckerboard="0"
     inkscape:deskcolor="#d1d1d1"
     inkscape:document-units="mm"
     showgrid="false"
     inkscape:lockguides="true"
     inkscape:zoom="0.457453"
     inkscape:cx="551.96927"
     inkscape:cy="632.8519"
     inkscape:window-width="2560"
     inkscape:window-height="1400"
     inkscape:window-x="-12"
     inkscape:window-y="-12"
     inkscape:window-maximized="1"
     inkscape:current-layer="g6" /><defs
     id="defs2"><marker
       style="overflow:visible"
       id="Dot"
       refX="0"
       refY="0"
       orient="auto"
       inkscape:stockid="Dot"
       markerWidth="2"
       markerHeight="2"
       viewBox="0 0 5.6666667 5.6666667"
       inkscape:isstock="true"
       inkscape:collect="always"
       preserveAspectRatio="xMidYMid"><path
         transform="scale(0.5)"
         style="fill:context-stroke;fill-rule:evenodd;stroke:context-stroke;stroke-width:1pt"
         d="M 5,0 C 5,2.76 2.76,5 0,5 -2.76,5 -5,2.76 -5,0 c 0,-2.76 2.3,-5 5,-5 2.76,0 5,2.24 5,5 z"
         id="Dot1"
         sodipodi:nodetypes="sssss" /></marker><marker
       style="overflow:visible"
       id="Dot-9"
       refX="0"
       refY="0"
       orient="auto"
       inkscape:stockid="Dot"
       markerWidth="2"
       markerHeight="2"
       viewBox="0 0 5.6666667 5.6666667"
       inkscape:isstock="true"
       inkscape:collect="always"
       preserveAspectRatio="xMidYMid"><path
         transform="scale(0.5)"
         style="fill:context-stroke;fill-rule:evenodd;stroke:context-stroke;stroke-width:1pt"
         d="M 5,0 C 5,2.76 2.76,5 0,5 -2.76,5 -5,2.76 -5,0 c 0,-2.76 2.3,-5 5,-5 2.76,0 5,2.24 5,5 z"
         id="Dot1-1"
         sodipodi:nodetypes="sssss" /></marker></defs><g
     inkscape:label="Layer 1"
     inkscape:groupmode="layer"
     id="layer1"
     transform="translate(267.47226,72.798261)"><g
       transform="matrix(0.03527778,0,0,-0.03527778,-17.041798,334.69877)"
       fill="#000000"
       stroke="none"
       id="g6"><path
         d="M 253,11222 6.9448813e-6,11075 -1.9999931,10790 l -3,-284 -239.9999969,-138 -240,-138 -5,-286 -5,-286 -242,-140 -243,-140 V 9095 8813 L -1222,8673 l -243,-140 -3,-285 -2,-284 -243,-140 -242,-140 -3,-284 -3,-285 -244,-140 -244,-140 -3,-285 -3,-285 -243,-140 -242,-140 v -300 -300 l 243,-140 242,-140 3,-285 3,-285 244,-140 244,-140 3,-285 3,-284 242,-140 243,-140 2,-284 3,-285 242,-140 243.00001,-140 v -282 -283 l 243,-140 242,-140 5,-286 5,-286 240,-138 239.9999969,-138 3,-284 L 6.9448813e-6,295 252,150 C 390,70 508,4 515,2 521,0 636,62 768,139 l 242,139 241,-139 C 1383,63 1495,0 1500,0 c 5,0 117,63 249,139 l 241,139 241,-139 C 2363,63 2475,0 2480,0 c 5,0 117,63 249,139 l 241,139 241,-139 C 3343,63 3455,0 3460,0 c 5,0 117,63 249,139 l 241,139 241,-139 C 4323,63 4435,0 4440,0 c 5,0 117,63 249,139 l 241,139 241,-139 C 5303,63 5415,0 5420,0 c 5,0 117,63 249,139 l 241,139 242,-139 C 6284,62 6399,0 6405,2 c 7,2 125,68 263,148 l 252,145 2,285 3,284 240,138 240,138 5,286 5,286 243,140 242,140 v 283 282 l 242,140 243,140 3,285 2,284 243,140 242,140 3,284 3,285 244,140 244,140 3,285 3,285 243,140 242,140 v 300 300 l -242,140 -243,140 -3,285 -3,285 -244,140 -244,140 -3,285 -3,284 -242,140 -243,140 -2,284 -3,285 -242,140 -243,140 v 282 283 l -242,140 -243,140 -5,286 -5,286 -240,138 -240,138 -3,284 -2,285 -252,145 c -138,80 -256,146 -263,148 -6,2 -121,-60 -253,-137 l -242,-139 -241,139 c -132,76 -244,139 -249,139 -5,0 -117,-63 -249,-139 l -241,-139 -241,139 c -132,76 -244,139 -249,139 -5,0 -117,-63 -249,-139 l -241,-139 -241,139 c -132,76 -244,139 -249,139 -5,0 -117,-63 -249,-139 l -241,-139 -241,139 c -132,76 -244,139 -249,139 -5,0 -117,-63 -249,-139 l -241,-139 -241,139 c -132,76 -244,139 -249,139 -5,0 -117,-63 -249,-139 l -241,-139 -241,139 c -132,76 -246,139 -252,138 -7,0 -126,-67 -264,-147 z m 499,-51 223,-129 v -267 -267 l -223,-129 c -123,-71 -227,-129 -232,-129 -4,0 -109,58 -232,129 l -222.999997,129 v 267 266 L 285,11170 c 121,71 225,129 232,129 6,1 112,-57 235,-128 z m 980,0 223,-129 v -267 -267 l -223,-129 c -123,-71 -227,-129 -232,-129 -4,0 -109,58 -232,129 l -223,129 v 267 266 l 220,129 c 121,71 225,129 232,129 6,1 112,-57 235,-128 z m 980,0 223,-130 v -266 -267 l -223,-129 c -123,-71 -227,-129 -232,-129 -5,0 -109,58 -232,129 l -223,129 v 267 266 l 220,129 c 121,71 225,129 232,129 6,1 112,-57 235,-128 z m 980,0 223,-130 v -266 -267 l -223,-129 c -123,-71 -227,-129 -232,-129 -5,0 -109,58 -232,129 l -223,129 v 267 266 l 220,129 c 121,71 225,129 232,129 6,1 112,-57 235,-128 z m 980,0 223,-130 v -266 -267 l -223,-129 c -123,-71 -227,-129 -232,-129 -5,0 -109,58 -232,129 l -223,129 v 267 266 l 220,129 c 121,71 225,129 232,129 6,1 112,-57 235,-128 z m 980,0 223,-130 v -266 -267 l -223,-129 c -123,-71 -228,-129 -232,-129 -5,0 -109,58 -232,129 l -223,129 v 267 267 l 220,128 c 121,71 225,129 232,129 6,1 112,-57 235,-128 z m 980,0 223,-130 v -266 -267 l -223,-129 c -123,-71 -228,-129 -232,-129 -5,0 -109,58 -232,129 l -223,129 v 267 267 l 220,128 c 121,71 225,129 232,129 6,1 112,-57 235,-128 z M 263,10321 485,10192 V 9925 9659 L 258,9528 30.000005,9397 l -226.999995,131 -228,131 v 267 268 l 220,127 c 121.000003,71 225.999996,128 232.999995,128 6,1 111.999995,-57 234.999995,-128 z m 980,0 222,-129 v -267 -266 l -227,-131 -228,-131 -227,131 -228,131 v 267 266 l 220,128 c 121,71 226,129 233,129 6,1 112,-57 235,-128 z m 979,0 223,-129 v -266 -267 l -227,-131 -228,-131 -227,131 -228,131 v 267 266 l 220,128 c 121,71 225,129 232,129 6,1 112,-57 235,-128 z m 980,0 223,-129 v -266 -267 l -227,-131 -228,-131 -227,131 -228,131 v 267 266 l 220,128 c 121,71 225,129 232,129 6,1 112,-57 235,-128 z m 981,0 222,-129 v -267 -266 l -227,-131 -228,-131 -227,131 -228,131 v 267 266 l 220,128 c 121,71 226,129 233,129 6,1 112,-57 235,-128 z m 979,0 223,-129 v -266 -267 l -227,-131 -228,-131 -227,131 -228,131 v 267 266 l 220,128 c 121,71 225,129 232,129 6,1 112,-57 235,-128 z m 980,0 223,-129 v -266 -267 l -227,-131 -228,-131 -227,131 -228,131 v 266 267 l 220,128 c 121,71 225,129 232,129 6,1 112,-57 235,-128 z m 983,0 220,-127 v -268 -267 l -227,-131 -228,-131 -227,131 -228,131 v 266 267 l 220,128 c 121,71 227,129 235,129 8,0 114,-57 235,-128 z m -7299.99999,-878 169.9999969,-99 3,-265 L 6.9448811e-6,8814 -229.99999,8681 l -230,-132 -230,132 -230,133 v 266 l 1,265 227,131 227,131 60,-33 c 33,-18 137,-77 230,-131 z M 7840,9080 v -266 l -230,-133 -230,-132 -230,132 -230,133 2,265 3,265 228,132 228,132 229,-132 229,-131 z m -7085,392 220,-128 3,-265 2,-265 -230,-133 -230,-132 -230,133 -229.999997,133 2,264 3,265 L 285,9472 c 121,70 227,127 235,128 8,0 114,-58 235,-128 z m 980,0 220,-128 3,-265 2,-265 -230,-133 -230,-132 -230,133 -230,133 2,264 3,265 220,128 c 121,70 227,127 235,127 8,0 114,-57 235,-127 z m 980,0 220,-128 3,-265 2,-265 -230,-133 -230,-132 -230,132 -230,133 2,265 3,265 220,128 c 121,70 227,127 235,127 8,0 114,-57 235,-127 z m 980,0 220,-128 3,-265 2,-265 -230,-133 -230,-132 -230,132 -230,133 2,265 3,265 220,128 c 121,70 227,127 235,127 8,0 114,-57 235,-127 z m 980,0 220,-128 3,-265 2,-265 -230,-133 -230,-132 -230,132 -230,133 2,265 3,265 220,128 c 121,70 227,127 235,127 8,0 114,-57 235,-127 z m 980,0 220,-128 3,-265 2,-264 -230,-133 -230,-133 -230,132 -230,133 2,265 3,265 220,128 c 121,70 227,128 235,128 8,-1 114,-58 235,-128 z m 980,0 220,-128 3,-265 2,-264 -230,-133 -230,-133 -230,132 -230,133 2,265 3,265 220,128 c 121,70 227,128 235,128 8,-1 114,-58 235,-128 z m -7351.99999,-847 227,-130 v -265 -265 l -230,-132 -229,-132 -231.00001,132 -230,132 v 265 265 l 228,132 c 125,72 230.00002,131 233.00001,130 3,-1 108,-60 232,-132 z M 263,8625 490,8495 V 8230 7965 L 260,7833 31.000005,7701 l -230.999995,132 -230,132 v 265 l 1,265 227,132 C -76.999988,8699 28.000005,8757 31.000005,8757 34.000005,8756 139,8697 263,8625 Z m 980,0 227,-130 v -265 -265 l -230,-132 -229,-132 -231,132 -230,132 v 265 l 1,265 227,132 c 125,72 230,130 233,130 3,-1 108,-60 232,-132 z m 980,0 227,-130 v -265 -265 l -230,-132 -230,-133 -230,133 -230,132 v 265 l 1,265 227,132 c 125,72 230,130 233,130 3,-1 107,-60 232,-132 z m 980,0 227,-130 v -265 -265 l -230,-132 -230,-133 -230,133 -230,132 v 265 265 l 228,131 c 125,73 230,131 233,130 3,0 107,-59 232,-131 z m 980,0 227,-130 v -265 -265 l -230,-132 -230,-133 -230,133 -230,132 v 265 265 l 228,131 c 125,73 230,131 233,130 3,0 107,-59 232,-131 z m 980,0 226,-130 1,-265 v -265 l -230,-132 -230,-133 -230,133 -230,132 v 265 265 l 228,131 c 125,73 230,131 233,130 3,0 108,-59 232,-131 z m 980,0 226,-130 1,-265 v -265 l -230,-132 -231,-132 -229,132 -230,132 v 265 265 l 228,132 c 125,72 230,130 233,130 3,-1 108,-60 232,-132 z m 980,0 226,-130 1,-265 v -265 l -230,-132 -231,-132 -229,132 -230,132 v 265 265 l 228,132 c 125,72 230,130 233,130 3,-1 108,-60 232,-132 z m 981,0 226,-130 v -265 -265 l -230,-132 -231,-132 -229,132 -230,132 v 265 265 l 228,132 c 125,72 230,130 234,130 4,-1 109,-60 232,-132 z m -9313,-847 229.00001,-132 v -266 l -1,-265 L -1210,6983 l -230,-131 -228,132 -227,131 -3,266 -2,265 227,132 c 126,72 229,132 231,132 2,0 106,-60 233,-132 z m 979.00001,0 L 6.9448813e-6,7645 V 7380 L -0.99999306,7115 -230.99999,6983 l -229,-131 -228,132 -227,131 -3,265 -2,265 227,132 c 126,73 229,132 231,132 1,1 106,-59 232,-131 z M 750,7778 980,7645 v -265 l -1,-265 -230,-132 -229,-131 -228,132 -226.999997,131 -3,265 -2,265 L 287,7777 c 126,73 229,132 231,132 1,1 106,-59 232,-131 z m 980,0 230,-133 v -265 l -1,-265 -230,-132 -229,-131 -228,132 -227,131 -3,265 -2,265 227,132 c 126,73 229,132 231,132 1,1 106,-59 232,-131 z m 980,0 230,-133 -2,-265 -3,-265 -227,-131 -228,-132 -227,132 -228,131 -3,265 -2,265 227,132 c 126,73 229,132 231,132 1,1 106,-59 232,-131 z m 980,0 230,-133 -2,-265 -3,-265 -227,-131 -228,-132 -227,132 -228,131 -3,265 -2,265 227,132 c 126,73 229,132 231,132 1,1 106,-59 232,-131 z m 980,0 230,-133 -2,-265 -3,-265 -227,-131 -228,-132 -227,132 -228,131 -3,265 -2,265 227,132 c 126,73 229,132 231,132 1,1 106,-59 232,-131 z m 980,0 230,-133 -2,-265 -3,-265 -227,-131 -228,-132 -229,131 -230,132 -1,265 v 265 l 228,132 c 125,73 228,132 230,132 1,1 106,-59 232,-131 z m 980,0 230,-133 -2,-265 -3,-265 -227,-131 -228,-132 -229,131 -230,132 -1,265 v 265 l 228,132 c 125,73 228,132 230,132 1,1 106,-59 232,-131 z m 980,0 230,-133 -2,-265 -3,-265 -227,-131 -228,-132 -229,131 -230,132 -1,265 v 265 l 228,132 c 125,73 228,132 230,132 1,1 106,-59 232,-131 z m 982,0 228,-132 -2,-265 -3,-266 -227,-131 -228,-132 -230,131 -229,132 -1,265 v 266 l 228,131 c 125,73 229,132 231,133 2,0 107,-59 233,-132 z m -10280,-855 218,-126 -2,-265 -3,-266 -220,-127 c -121,-71 -227,-128 -235,-128 -8,0 -114,58 -235,128 l -220,128 -3,266 -2,265 227,131 c 126,72 234,129 242,126 8,-3 112,-62 233,-132 z m 970.00001,6 228,-132 -2,-265 -3,-266 -220,-127 c -121,-71 -227,-128 -235,-128 -8,0 -114.00001,58 -235.00001,128 l -220,128 -3,265 -2,265 227,131 c 126,73 230.00002,132 232.00002,132 1.99999,0 106.99999,-59 232.99999,-131 z M 262,6929 490,6797 488,6532 485,6266 265,6139 C 144,6068 38.000005,6011 30.000005,6011 c -7.999999,0 -113.999992,58 -234.999995,128 l -220,128 -3,265 -2,265 227,131 c 126.000002,73 229.999995,132 231.999995,132 2,0 106.999995,-59 232.999995,-131 z m 980,0 228,-132 -2,-265 -3,-266 -220,-127 c -121,-71 -227,-128 -235,-128 -8,0 -114,58 -235,128 l -220,128 -3,265 -2,265 227,131 c 126,73 230,132 232,132 2,0 107,-59 233,-131 z m 980,0 228,-132 -2,-265 -3,-265 -220,-128 c -121,-70 -227,-128 -235,-128 -8,0 -114,58 -235,128 l -220,128 -3,265 -2,265 227,131 c 126,73 230,132 232,132 2,0 107,-59 233,-131 z m 980,0 228,-132 -2,-265 -3,-265 -220,-128 c -121,-70 -227,-128 -235,-128 -8,0 -114,58 -235,128 l -220,128 -3,265 -2,265 227,131 c 126,73 230,132 232,132 2,0 107,-59 233,-131 z m 980,0 228,-132 -2,-265 -3,-265 -220,-128 c -121,-70 -227,-128 -235,-128 -8,0 -114,58 -235,128 l -220,128 -3,265 -2,265 227,131 c 126,73 230,132 232,132 2,0 107,-59 233,-131 z m 980,0 228,-132 -2,-265 -3,-265 -220,-128 c -121,-70 -227,-128 -235,-128 -8,0 -114,58 -235,128 l -220,128 -3,265 -2,265 227,131 c 126,73 230,132 232,132 2,0 107,-59 233,-131 z m 980,0 228,-132 -2,-265 -3,-265 -220,-128 c -121,-70 -227,-128 -235,-128 -8,0 -114,57 -235,128 l -220,127 -3,266 -2,265 227,131 c 126,73 230,132 232,132 2,0 107,-59 233,-131 z m 980,0 228,-132 -2,-265 -3,-265 -220,-128 c -121,-70 -227,-128 -235,-128 -8,0 -114,57 -235,128 l -220,127 -3,266 -2,265 227,131 c 126,73 230,132 232,132 2,0 107,-59 233,-131 z m 980,0 228,-132 -2,-265 -3,-265 -220,-128 c -121,-70 -227,-128 -235,-128 -8,0 -114,57 -235,128 l -220,127 -3,266 -2,265 227,131 c 126,73 230,132 232,132 2,0 107,-59 233,-131 z m 990,-6 218,-125 -2,-265 -3,-266 -220,-128 c -121,-70 -227,-128 -235,-128 -8,0 -114,57 -235,128 l -220,127 -3,266 -2,265 227,132 c 129,74 234,129 243,125 8,-3 113,-62 232,-131 z m -11280,-842 223,-130 v -266 -266 l -225,-130 c -123,-72 -231,-128 -240,-126 -8,3 -112,61 -230,130 l -215,125 v 267 267 l 220,128 c 121,71 225,129 232,129 6,1 112,-57 235,-128 z m 980,0 223.00001,-130 V 5685 5419 L -1208,5289 c -123,-71 -227,-129 -231,-129 -5,0 -110,59 -234,131 l -227,131 v 263 263 l 223,130 c 122,72 227,130 234,131 6,1 112,-57 235,-128 z m 980.00001,0 222.9999969,-130 V 5685 5419 L -227.99999,5289 c -123,-71 -227,-129 -231,-129 -5,0 -110,59 -234,131 l -227,131 v 263 263 l 223,130 c 122,72 227,130 234,131 6,1 112,-57 235,-128 z M 752,6081 975,5951 V 5685 5419 L 752,5289 c -123,-71 -227,-129 -231,-129 -5,0 -110,59 -234,131 L 60.000003,5422 v 263 263 L 283,6078 c 122,72 227,130 234,131 6,1 112,-57 235,-128 z m 980,0 223,-130 v -266 -266 l -223,-130 c -123,-71 -227,-129 -231,-129 -5,0 -110,59 -234,131 l -227,131 v 263 263 l 223,130 c 122,72 227,130 234,131 6,1 112,-57 235,-128 z m 980,0 223,-130 v -266 -266 l -223,-130 c -123,-71 -228,-129 -232,-129 -4,0 -109,58 -232,129 l -223,130 v 266 266 l 220,129 c 121,70 225,129 232,129 6,1 112,-57 235,-128 z m 980,0 223,-130 v -266 -266 l -223,-130 c -123,-71 -228,-129 -232,-129 -4,0 -109,58 -232,129 l -223,130 v 266 266 l 220,129 c 121,70 225,129 232,129 6,1 112,-57 235,-128 z m 980,0 223,-130 v -266 -266 l -223,-130 c -123,-71 -228,-129 -232,-129 -4,0 -109,58 -232,129 l -223,130 v 266 266 l 220,129 c 121,70 225,129 232,129 6,1 112,-57 235,-128 z m 981,-2 227,-131 v -263 -263 l -227,-131 c -124,-72 -229,-131 -234,-131 -4,0 -108,58 -231,129 l -223,130 v 266 266 l 220,129 c 121,70 225,129 231,129 6,1 113,-58 237,-130 z m 980,0 227,-131 v -263 -263 l -227,-131 c -124,-72 -229,-131 -234,-131 -4,0 -108,58 -231,129 l -223,130 v 266 266 l 220,129 c 121,70 225,129 231,129 6,1 113,-58 237,-130 z m 980,0 227,-131 v -263 -263 l -227,-131 c -124,-72 -229,-131 -234,-131 -4,0 -108,58 -231,129 l -223,130 v 266 266 l 220,129 c 121,70 225,129 231,129 6,1 113,-58 237,-130 z m 980,0 227,-131 v -263 -263 l -227,-131 c -124,-72 -229,-131 -234,-131 -4,0 -108,58 -231,129 l -223,130 v 266 266 l 220,129 c 121,70 225,129 231,129 6,1 113,-58 237,-130 z m 980,2 222,-129 v -267 -267 l -215,-125 c -118,-69 -222,-127 -230,-130 -9,-2 -117,54 -240,126 l -225,130 v 266 266 l 220,129 c 121,70 226,129 233,129 6,1 112,-57 235,-128 z m -11268,-850 220,-127 3,-266 2,-265 -222,-129 c -123,-70 -230,-128 -238,-128 -8,0 -115,57 -238,128 l -222,128 2,265 3,266 220,128 c 121,70 227,128 235,128 8,0 114,-57 235,-128 z m 980.00001,0 220,-127 3,-266 2,-265 -230,-132 -230,-133 -230.00001,133 -230,132 2,265 3,265 220,128 c 121,70 227.00001,128 235.00001,128 8,0 114,-57 235,-128 z M 265,5231 l 220,-127 3,-266 2,-265 -230,-132 -229.999995,-133 -229.999995,133 -230,132 2,265 3,265 220,128 c 121.000003,70 226.999996,128 234.999995,128 8,0 113.999995,-57 234.999995,-128 z m 980,0 220,-127 3,-266 2,-265 -230,-132 -230,-133 -230,133 -230,132 2,265 3,265 220,128 c 121,70 227,128 235,128 8,0 114,-57 235,-128 z m 980,0 220,-128 3,-265 2,-265 -230,-132 -230,-133 -230,133 -230,132 2,265 3,265 220,128 c 121,70 227,128 235,128 8,0 114,-58 235,-128 z m 980,0 220,-128 3,-265 2,-265 -230,-132 -230,-133 -230,133 -230,132 2,265 3,265 220,128 c 121,70 227,128 235,128 8,0 114,-58 235,-128 z m 980,0 220,-128 3,-265 2,-265 -230,-132 -230,-133 -230,133 -230,132 2,265 3,265 220,128 c 121,70 227,128 235,128 8,0 114,-58 235,-128 z m 980,0 220,-128 3,-265 2,-265 -230,-132 -230,-133 -230,133 -230,132 2,265 3,265 220,128 c 121,70 227,128 235,128 8,0 114,-58 235,-128 z m 980,0 220,-128 3,-265 2,-265 -230,-132 -230,-133 -230,133 -230,132 2,265 3,266 220,127 c 121,71 227,128 235,128 8,0 114,-58 235,-128 z m 980,0 220,-128 3,-265 2,-265 -230,-132 -230,-133 -230,133 -230,132 2,265 3,266 220,127 c 121,71 227,128 235,128 8,0 114,-58 235,-128 z m 980,0 220,-128 3,-265 2,-265 -230,-132 -230,-133 -230,133 -230,132 2,265 3,266 220,127 c 121,71 227,128 235,128 8,0 114,-58 235,-128 z m 980,0 220,-128 3,-266 2,-265 -222,-128 c -123,-71 -230,-128 -238,-128 -8,0 -115,58 -238,128 l -222,129 2,265 3,266 220,127 c 121,71 227,128 235,128 8,0 114,-58 235,-128 z m -10292,-846 226.00001,-130 1,-265 V 3724 L -1210,3592 l -231,-133 -230,132 -229,133 2,265 3,266 225,131 c 124,73 227,131 230,130 4,0 108,-59 233,-131 z m 980.00001,0 L -0.99999306,4255 6.9448813e-6,3990 V 3725 L -229.99999,3592 l -230,-132 -230,132 -230,133 2,265 3,265 225,131 c 124,73 227,131 230,130 3,0 108,-59 233,-131 z M 753,4385 979,4255 980,3990 V 3725 L 750,3592 520,3460 290,3592 60.000003,3725 l 2,265 3,265 L 290,4386 c 124,73 227,131 230,130 3,0 108,-59 233,-131 z m 980,0 226,-130 1,-265 v -265 l -230,-133 -230,-132 -230,132 -230,133 2,265 3,265 225,131 c 124,73 227,131 230,130 3,0 108,-59 233,-131 z m 973,2 229,-132 3,-265 2,-265 -230,-133 -230,-132 -230,132 -230,133 2,265 3,265 225,131 c 124,73 225,132 226,133 1,1 104,-59 230,-132 z m 980,0 229,-132 3,-265 2,-265 -230,-133 -230,-132 -230,132 -230,133 2,265 3,265 225,131 c 124,73 225,132 226,133 1,1 104,-59 230,-132 z m 980,0 229,-132 3,-265 2,-265 -230,-133 -230,-132 -230,132 -230,133 2,265 3,265 225,131 c 124,73 225,132 226,133 1,1 104,-59 230,-132 z m 980,0 229,-132 3,-265 2,-265 -230,-133 -230,-132 -230,132 -230,133 v 265 l 1,265 227,131 c 125,73 227,132 228,133 1,1 104,-59 230,-132 z m 980,0 229,-132 3,-265 2,-265 -230,-133 -230,-132 -230,132 -230,133 v 265 l 1,265 227,131 c 125,73 227,132 228,133 1,1 104,-59 230,-132 z m 980,0 229,-132 3,-265 2,-265 -230,-133 -230,-132 -230,132 -230,133 v 265 l 1,265 227,131 c 125,73 227,132 228,133 1,1 104,-59 230,-132 z m 980,0 229,-132 3,-266 2,-265 -229,-133 -230,-132 -231,133 -230,132 v 266 l 1,265 227,131 c 125,73 227,132 228,133 1,1 104,-59 230,-132 z m -9301.99999,-852 226,-130 v -265 -265 l -231,-132 -229.99999,-133 -230.00002,133 -229,132 v 265 265 l 228,132 c 125,72 230.00002,131 234.00001,130 3,-1 108,-60 232,-132 z M 264,3535 490,3405 V 3140 2875 L 260,2743 30.000005,2611 l -229.999995,132 -229,132 -1,265 v 265 l 228,132 C -76.999988,3609 28.000005,3668 32.000005,3667 35.000005,3666 140,3607 264,3535 Z m 980,0 226,-130 v -265 -265 l -230,-132 -230,-132 -230,132 -229,132 -1,265 v 265 l 228,132 c 125,72 230,131 234,130 3,-1 108,-60 232,-132 z m 980,0 226,-130 v -265 -265 l -230,-132 -230,-131 -230,131 -229,132 -1,265 v 265 l 228,132 c 125,72 230,131 234,130 3,-1 108,-60 232,-132 z m 980,0 226,-130 v -265 -265 l -230,-132 -230,-131 -230,131 -230,132 v 265 265 l 228,132 c 125,72 230,131 234,130 3,-1 108,-60 232,-132 z m 980,0 226,-130 v -265 -265 l -230,-132 -230,-131 -230,131 -230,132 v 265 265 l 228,132 c 125,72 230,131 234,130 3,-1 108,-60 232,-132 z m 980,0 226,-130 v -265 l -1,-265 -229,-132 -230,-131 -230,131 -230,132 v 265 265 l 228,132 c 125,72 230,131 234,130 3,-1 108,-60 232,-132 z m 980,0 226,-130 v -265 l -1,-265 -229,-132 -230,-132 -230,132 -230,132 v 265 265 l 228,132 c 125,72 230,131 233,130 4,-1 108,-60 233,-132 z m 980,0 226,-130 v -265 l -1,-265 -229,-132 -230,-132 -230,132 -230,132 v 265 265 l 228,132 c 125,72 230,131 233,130 4,-1 108,-60 233,-132 z m 980,0 226,-130 v -265 -265 l -229,-132 -230,-133 -230,133 -231,132 v 265 265 l 228,132 c 125,72 230,131 233,130 4,-1 108,-60 233,-132 z M -227.99999,2688 6.9448811e-6,2556 -1.9999931,2291 l -3,-265 -227.9999969,-132 -228,-132 -229,132 -229,131 -1,265 v 266 l 228,131 c 125,73 229,133 231,133 2,0 107,-59 233,-132 z M 752,2688 980,2556 978,2291 975,2026 755,1898 c -121,-70 -227,-128 -235,-128 -8,1 -114,58 -235,128 l -219.999997,128 -3,265 -2,264 L 287,2687 c 126,73 230,133 232,133 2,0 107,-59 233,-132 z m 980,0 228,-132 -2,-265 -3,-265 -220,-128 c -121,-70 -227,-128 -235,-128 -8,1 -114,58 -235,128 l -220,128 -3,265 -2,264 227,132 c 126,73 230,133 232,133 2,0 107,-59 233,-132 z m 979,0 229,-132 -2,-265 -3,-265 -220,-128 c -121,-70 -227,-127 -235,-127 -8,0 -114,57 -235,127 l -220,128 -3,265 -2,265 227,132 c 126,72 230,131 231,132 2,0 107,-59 233,-132 z m 980,0 229,-132 -2,-265 -3,-265 -220,-128 c -121,-70 -227,-127 -235,-127 -8,0 -114,57 -235,127 l -220,128 -3,265 -2,265 227,132 c 126,72 230,131 231,132 2,0 107,-59 233,-132 z m 980,0 229,-132 -2,-265 -3,-265 -220,-128 c -121,-70 -227,-127 -235,-127 -8,0 -114,57 -235,127 l -220,128 -3,265 -2,265 227,132 c 126,72 230,131 231,132 2,0 107,-59 233,-132 z m 980,0 229,-133 -2,-264 -3,-265 -220,-128 c -121,-70 -227,-127 -235,-127 -8,0 -114,57 -235,127 l -220,128 -3,265 -2,265 227,132 c 126,72 230,132 232,132 2,0 106,-60 232,-132 z m 980,0 229,-133 -2,-264 -3,-265 -220,-128 c -121,-70 -227,-127 -235,-128 -8,0 -114,58 -235,128 l -220,128 -3,265 -2,265 227,132 c 126,72 230,132 232,132 2,0 106,-60 232,-132 z m 980,0 229,-132 v -266 l -1,-265 -229,-131 -229,-132 -228,132 -228,132 -3,265 -2,265 227,132 c 126,72 230,132 232,132 2,0 106,-59 232,-132 z M 272,1833 490,1708 488,1443 485,1178 263,1049 C 140,978 34.000005,920 28.000005,921 c -6.999999,0 -111.999992,57 -232.999995,128 l -220,127 -3,266 -2,266 227,131 C -72.999988,1914 31.000005,1968 40.000004,1964 48.000004,1961 153,1902 272,1833 Z m 980,0 218,-125 -2,-265 -3,-265 -215,-125 c -118,-69 -222,-127 -231,-130 -8,-2 -116,54 -240,125 l -224,130 -3,265 -2,265 227,131 c 130,75 234,129 243,125 8,-3 113,-62 232,-131 z m 980,0 218,-125 -2,-265 -3,-265 -223,-129 c -123,-71 -227,-129 -232,-129 -5,0 -109,58 -232,129 l -223,129 -3,265 -2,265 227,131 c 130,75 234,129 243,125 8,-3 113,-62 232,-131 z m 980,0 218,-125 -2,-265 -3,-265 -223,-129 c -123,-71 -227,-129 -232,-129 -5,0 -109,58 -232,129 l -223,129 -3,265 -2,265 227,131 c 130,75 234,129 243,125 8,-3 113,-62 232,-131 z m 980,0 218,-125 -2,-265 -3,-265 -215,-125 c -118,-69 -222,-127 -231,-130 -8,-2 -116,54 -240,125 l -224,130 -3,265 -2,265 227,131 c 130,75 234,129 243,125 8,-3 113,-62 232,-131 z m 980,0 218,-125 -2,-265 -3,-265 -223,-129 c -123,-71 -227,-129 -232,-129 -5,0 -109,58 -232,129 l -223,129 -3,265 -2,265 227,131 c 130,75 234,129 243,125 8,-3 113,-62 232,-131 z m 980,0 218,-125 -2,-265 -3,-265 -224,-130 c -124,-71 -232,-127 -240,-125 -9,3 -113,61 -231,130 l -215,125 -3,265 -2,265 227,131 c 130,75 234,129 243,125 8,-3 113,-62 232,-131 z m 980,0 218,-125 -2,-266 -3,-266 -220,-127 c -121,-71 -226,-128 -233,-128 -6,-1 -112,57 -235,128 l -222,129 -3,265 -2,265 227,131 c 130,75 234,129 243,125 8,-3 113,-62 232,-131 z M 752,991 975,862 V 595 328 L 752,199 C 629,128 524,70 520,70 515,70 411,128 288,199 L 65.000003,329 V 595 862 L 285,990 c 121,71 225,129 232,129 6,1 112,-57 235,-128 z m 980,0 223,-129 V 595 328 L 1732,199 C 1609,128 1504,70 1500,70 c -5,0 -109,58 -232,129 l -223,130 v 266 267 l 220,128 c 121,71 225,129 232,129 6,1 112,-57 235,-128 z m 980,0 223,-129 V 595 329 L 2712,199 C 2589,128 2485,70 2480,70 c -5,0 -109,58 -232,129 l -223,130 v 266 267 l 220,128 c 121,71 225,129 232,129 6,1 112,-57 235,-128 z m 980,0 223,-129 V 595 329 L 3692,199 C 3569,128 3465,70 3460,70 c -5,0 -109,58 -232,129 l -223,130 v 266 267 l 220,128 c 121,71 225,129 232,129 6,1 112,-57 235,-128 z m 980,0 223,-129 V 595 329 L 4672,199 C 4549,128 4445,70 4440,70 c -5,0 -109,58 -232,129 l -223,130 v 266 267 l 220,128 c 121,71 225,129 232,129 6,1 112,-57 235,-128 z m 980,0 223,-129 V 595 329 L 5652,199 C 5529,128 5425,70 5420,70 c -4,0 -109,58 -232,129 l -223,129 v 267 267 l 220,128 c 121,71 225,129 232,129 6,1 112,-57 235,-128 z m 980,0 223,-129 V 595 329 L 6632,199 C 6509,128 6405,70 6400,70 c -4,0 -109,58 -232,129 l -223,129 v 267 267 l 220,128 c 121,71 225,129 232,129 6,1 112,-57 235,-128 z"
         id="path4"
         style="fill:#b2b2b2;fill-opacity:1;stroke:none;stroke-opacity:1" /><path
         d="m -3659.5116,11222.323 -253,-147 -2,-285 -3,-284 -240,-138 -240,-138 -5,-286 -5,-285.9995 -242,-140 -243,-140 v -283 -282 l -242,-140 -243,-140 -3,-285.0001 -2,-284 -243,-140 -242,-140 -3,-284 -3,-285 -244,-140 -244,-140 -3,-285 -3,-285 -243,-140 -242,-140 v -300 -300 l 243,-140 242,-140 3,-285 3,-285 244,-140 244,-140 3,-285 3,-284 242,-140 243,-140 2,-284 3,-285 242,-140 243,-140 v -282 -283 l 243,-140 242,-140 5,-286 5,-286 240,-138 240,-138.00004 3,-284 2,-285 252,-144.99999 c 138,-79.999998 256,-145.9999871 263,-147.9999871 6,-2.00000396 121,59.9999901 253,136.9999871 l 242,138.99999 241,-138.99999 c 132,-75.999997 244,-138.99999106 249,-138.99999106 5,0 117,62.99999406 249,138.99999106 l 241,138.99999 241,-138.99999 c 132,-75.999997 244,-138.99999106 249,-138.99999106 5,0 117,62.99999406 249,138.99999106 l 240.99999,138.99999 241,-138.99999 c 132,-75.999997 244,-138.99999106 249,-138.99999106 5,0 117,62.99999406 249,138.99999106 l 241,138.99999 241,-138.99999 c 132,-75.999997 244,-138.99999106 249,-138.99999106 5,0 117,62.99999406 249,138.99999106 l 241.00001,138.99999 241,-138.99999 c 132,-75.999997 244,-138.99999106 249,-138.99999106 5,0 117,62.99999406 249,138.99999106 l 241,138.99999 242,-138.99999 c 132,-76.999997 247,-138.99999106 253,-136.9999871 7,2 125,67.9999891 263,147.9999871 l 252,144.99999 2,285 3,284 240,138.00004 240,138 5,286 5,286 243,140 242,140 v 283 282 l 242,140 243,140 3,285 2,284 243,140 242,140 3,284 3,285 244,140 244,140 3,285 3,285 243,140 242,140 v 300 300 l -242,140 -243,140 -3,285 -3,285 -244,140 -244,140 -3,285 -3,284 -242,140 -243,140 -2,284 -3,285.0001 -242,140 -243,140 v 282 283 l -242,140 -243,140 -5,285.9995 -5,286 -240,138 -240,138 -3,284 -2,285 -252,145 c -138,80 -256,146 -263,148 -6,2 -121,-60 -253,-137 l -242,-139 -241,139 c -132,76 -244,139 -249,139 -5,0 -117,-63 -249,-139 l -241,-139 -241.00001,139 c -132,76 -244,139 -249,139 -5,0 -117,-63 -249,-139 l -241,-139 -241,139 c -132,76 -244,139 -249,139 -5,0 -117,-63 -249,-139 l -241,-139 -240.99999,139 c -132,76 -244,139 -249,139 -5,0 -117,-63 -249,-139 l -241,-139 -241,139 c -132,76 -244,139 -249,139 -5,0 -117,-63 -249,-139 l -241,-139 -241,139 c -132,76 -246,139 -252,138 -7,0 -126,-67 -264,-147 z m 499,-51 223,-129 v -267 -267 l -223,-129 c -123,-71 -227,-129 -232,-129 -4,0 -109,58 -232,129 l -223,129 v 267 266 l 220,129 c 121,71 225,129 232,129 6,1 112,-57 235,-128 z m 980,0 223,-129 v -267 -267 l -223,-129 c -123,-71 -227,-129 -232,-129 -4,0 -109,58 -232,129 l -223,129 v 267 266 l 220,129 c 121,71 225,129 232,129 6,1 112,-57 235,-128 z m 980,0 222.99999,-130 v -266 -267 l -222.99999,-129 c -123,-71 -227,-129 -232,-129 -5,0 -109,58 -232,129 l -223,129 v 267 266 l 220,129 c 121,71 225,129 232,129 6,1 112,-57 235,-128 z m 979.99999,0 223.0000001,-130 v -266 -267 l -223.0000001,-129 c -123,-71 -227,-129 -232,-129 -5,0 -109,58 -232,129 l -223,129 v 267 266 l 220,129 c 121,71 225,129 232,129 6,1 112,-57 235,-128 z m 980,0 223.00001,-130 v -266 -267 l -223.00001,-129 c -123,-71 -227,-129 -232,-129 -5,0 -109,58 -232,129 l -222.999998,129 v 267 266 l 219.999998,129 c 121,71 225,129 232,129 6,1 112,-57 235,-128 z m 980.00001,0 223,-130 v -266 -267 l -223,-129 c -123,-71 -228,-129 -232,-129 -5,0 -109,58 -232,129 l -223,129 v 267 267 l 220,128 c 121,71 225,129 232,129 6,1 112,-57 235,-128 z m 980,0 223,-130 v -266 -267 l -223,-129 c -123,-71 -228,-129 -232,-129 -5,0 -109,58 -232,129 l -223,129 v 267 267 l 220,128 c 121,71 225,129 232,129 6,1 112,-57 235,-128 z m -6369,-850 222,-129 v -267 -265.9995 l -227,-131 -228,-131 -227,131 -228,131 v 266.9995 268 l 220,127 c 121,71 226,128 233,128 6,1 112,-57 235,-128 z m 980,0 222,-129 v -267 -265.9995 l -227,-131 -228,-131 -227,131 -228,131 v 266.9995 266 l 220,128 c 121,71 226,129 233,129 6,1 112,-57 235,-128 z m 979,0 223,-129 v -266 -266.9995 l -227,-131 -228,-131 -227,131 -228,131 v 266.9995 266 l 220,128 c 121,71 225,129 232,129 6,1 112,-57 235,-128 z m 979.99999,0 223,-129 v -266 -266.9995 l -227,-131 -228,-131 -226.99999,131 -228,131 v 266.9995 266 l 220,128 c 121,71 224.99999,129 231.99999,129 6,1 112,-57 235,-128 z m 981,0 222,-129 v -267 -265.9995 l -227,-131 -228,-131 -227,131 -228,131 v 266.9995 266 l 220,128 c 121,71 226,129 233,129 6,1 112,-57 235,-128 z m 979.00001,0 223,-129 v -266 -266.9995 l -227,-131 -228,-131 -227.00001,131 -228,131 v 266.9995 266 l 220,128 c 121,71 225.00001,129 232.00001,129 6,1 112,-57 235,-128 z m 980,0 223,-129 v -266 -266.9995 l -227,-131 -228,-131 -227,131 -228,131 v 265.9995 267 l 220,128 c 121,71 225,129 232,129 6,1 112,-57 235,-128 z m 983,0 220,-127 v -268 -266.9995 l -227,-131 -228,-131 -227,131 -228,131 v 265.9995 267 l 220,128 c 121,71 227,129 235,129 8,0 114,-57 235,-128 z m -7300,-877.9995 170,-99 3,-265 2,-265 -230,-133 -230,-132 -230,132 -230,133 v 266 l 1,265 227,131 227,131 60,-33 c 33,-18 137,-77 230,-131 z m 8015,-363 v -266 l -230,-133 -230,-132 -230,132 -230,133 2,265 3,265 228,132 228,132 229,-132 229,-131 z m -7085,392 220,-128 3,-265 2,-265 -230,-133 -230,-132 -230,133 -230,133 2,264 3,265 220,128 c 121,70 227,127 235,128 8,0 114,-58 235,-128 z m 980,0 220,-128 3,-265 2,-265 -230,-133 -230,-132 -230,133 -230,133 2,264 3,265 220,128 c 121,70 227,127 235,127 8,0 114,-57 235,-127 z m 980,0 219.99999,-128 3,-265 2,-265 -229.99999,-133 -230,-132 -230,132 -230,133 2,265 3,265 220,128 c 121,70 227,127 235,127 8,0 114,-57 235,-127 z m 979.99999,0 220.0000001,-128 2.9999998,-265 2,-265 -229.9999999,-133 -230,-132 -230,132 -230,133 2,265 3,265 220,128 c 121,70 227,127 235,127 8,0 114,-57 235,-127 z m 980,0 220.00001,-128 3,-265 2,-265 -230.00001,-133 -230,-132 -230,132 -230,133 2,265 3.000002,265 219.999998,128 c 121,70 227,127 235,127 8,0 114,-57 235,-127 z m 980.00001,0 220,-128 3,-265 2,-264 -230,-133 -230,-133 -230,132 -230,133 2,265 3,265 220,128 c 121,70 227,128 235,128 8,-1 114,-58 235,-128 z m 980,0 220,-128 3,-265 2,-264 -230,-133 -230,-133 -230,132 -230,133 2,265 3,265 220,128 c 121,70 227,128 235,128 8,-1 114,-58 235,-128 z m -7352,-847 227,-130 v -265.0001 -265 l -230,-132 -229,-132 -231,132 -230,132 v 265 265.0001 l 228,132 c 125,72 230,131 233,130 3,-1 108,-60 232,-132 z m 980,0 227,-130 v -265.0001 -265 l -230,-132 -229,-132 -231,132 -230,132 v 265 l 1,265.0001 227,132 c 125,72 230,130 233,130 3,-1 108,-60 232,-132 z m 980,0 227,-130 v -265.0001 -265 l -230,-132 -229,-132 -231,132 -230,132 v 265 l 1,265.0001 227,132 c 125,72 230,130 233,130 3,-1 108,-60 232,-132 z m 980,0 227,-130 v -265.0001 -265 l -230,-132 -230,-133 -230,133 -230,132 v 265 l 1,265.0001 227,132 c 125,72 230,130 233,130 3,-1 107,-60 232,-132 z m 979.99999,0 227,-130 v -265.0001 -265 l -230,-132 -230,-133 -229.99999,133 -230,132 v 265 265.0001 l 228,131 c 125,73 229.99999,131 232.99999,130 3,0 107,-59 232,-131 z m 980,0 227,-130 v -265.0001 -265 l -230,-132 -230,-133 -230,133 -230,132 v 265 265.0001 l 228,131 c 125,73 230,131 233,130 3,0 107,-59 232,-131 z m 980.00001,0 226,-130 1,-265.0001 v -265 l -230,-132 -230,-133 -230.00001,133 -230,132 v 265 265.0001 l 228,131 c 125,73 230.00001,131 233.00001,130 3,0 108,-59 232,-131 z m 980,0 226,-130 1,-265.0001 v -265 l -230,-132 -231,-132 -229,132 -230,132 v 265 265.0001 l 228,132 c 125,72 230,130 233,130 3,-1 108,-60 232,-132 z m 980,0 226,-130 1,-265.0001 v -265 l -230,-132 -231,-132 -229,132 -230,132 v 265 265.0001 l 228,132 c 125,72 230,130 233,130 3,-1 108,-60 232,-132 z m 981,0 226,-130 v -265.0001 -265 l -230,-132 -231,-132 -229,132 -230,132 v 265 265.0001 l 228,132 c 125,72 230,130 234,130 4,-1 109,-60 232,-132 z m -9313,-847.0001 229,-132 v -266 l -1,-265 -229,-132 -230,-131 -228,132 -227,131 -3,266 -2,265 227,132 c 126,72 229,132 231,132 2,0 106,-60 233,-132 z m 979,0 230,-133 v -265 l -1,-265 -230,-132 -229,-131 -228,132 -227,131 -3,265 -2,265 227,132 c 126,73 229,132 231,132 1,1 106,-59 232,-131 z m 980,0 230,-133 v -265 l -1,-265 -230,-132 -229,-131 -228,132 -227,131 -3,265 -2,265 227,132 c 126,73 229,132 231,132 1,1 106,-59 232,-131 z m 980,0 230,-133 v -265 l -1,-265 -230,-132 -229,-131 -228,132 -227,131 -3,265 -2,265 227,132 c 126,73 229,132 231,132 1,1 106,-59 232,-131 z m 980,0 229.99999,-133 -2,-265 -3,-265 -226.99999,-131 -228,-132 -227,132 -228,131 -3,265 -2,265 227,132 c 126,73 229,132 231,132 1,1 106,-59 232,-131 z m 979.99999,0 229.9999999,-133 -2,-265 -2.9999998,-265 -227.0000001,-131 -228,-132 -227,132 -228,131 -3,265 -2,265 227,132 c 126,73 229,132 231,132 1,1 106,-59 232,-131 z m 980,0 230.00001,-133 -2,-265 -3,-265 -227.00001,-131 -228,-132 -227,132 -227.999998,131 -3.000002,265 -2,265 227,132 c 126,73 229,132 231,132 1,1 106,-59 232,-131 z m 980.00001,0 230,-133 -2,-265 -3,-265 -227,-131 -228,-132 -229,131 -230,132 -1,265 v 265 l 228,132 c 125,73 228,132 230,132 1,1 106,-59 232,-131 z m 980,0 230,-133 -2,-265 -3,-265 -227,-131 -228,-132 -229,131 -230,132 -1,265 v 265 l 228,132 c 125,73 228,132 230,132 1,1 106,-59 232,-131 z m 980,0 230,-133 -2,-265 -3,-265 -227,-131 -228,-132 -229,131 -230,132 -1,265 v 265 l 228,132 c 125,73 228,132 230,132 1,1 106,-59 232,-131 z m 982,0 228,-132 -2,-265 -3,-266 -227,-131 -228,-132 -230,131 -229,132 -1,265 v 266 l 228,131 c 125,73 229,132 231,133 2,0 107,-59 233,-132 z m -10280,-855 218,-126 -2,-265 -3,-266 -220,-127 c -121,-71 -227,-128 -235,-128 -8,0 -114,58 -235,128 l -220,128 -3,266 -2,265 227,131 c 126,72 234,129 242,126 8,-3 112,-62 233,-132 z m 970,6 228,-132 -2,-265 -3,-266 -220,-127 c -121,-71 -227,-128 -235,-128 -8,0 -114,58 -235,128 l -220,128 -3,265 -2,265 227,131 c 126,73 230,132 232,132 2,0 107,-59 233,-131 z m 980,0 228,-132 -2,-265 -3,-266 -220,-127 c -121,-71 -227,-128 -235,-128 -8,0 -114,58 -235,128 l -220,128 -3,265 -2,265 227,131 c 126,73 230,132 232,132 2,0 107,-59 233,-131 z m 980,0 228,-132 -2,-265 -3,-266 -220,-127 c -121,-71 -227,-128 -235,-128 -8,0 -114,58 -235,128 l -220,128 -3,265 -2,265 227,131 c 126,73 230,132 232,132 2,0 107,-59 233,-131 z m 980,0 228,-132 -2,-265 -3,-265 -220,-128 c -121,-70 -227,-128 -235,-128 -8,0 -114,58 -235,128 l -220,128 -3,265 -2,265 227,131 c 126,73 230,132 232,132 2,0 107,-59 233,-131 z m 979.99999,0 228,-132 -2,-265 -3,-265 -220,-128 c -121,-70 -227,-128 -235,-128 -8,0 -113.99999,58 -234.99999,128 l -220,128 -3,265 -2,265 227,131 c 126,73 229.99999,132 231.99999,132 2,0 107,-59 233,-131 z m 980,0 228,-132 -2,-265 -3,-265 -220,-128 c -121,-70 -227,-128 -235,-128 -8,0 -114,58 -235,128 l -220,128 -3,265 -2,265 227,131 c 126,73 230,132 232,132 2,0 107,-59 233,-131 z m 980.00001,0 228,-132 -2,-265 -3,-265 -220,-128 c -121,-70 -227,-128 -235,-128 -8,0 -114.00001,58 -235.00001,128 l -220,128 -3,265 -2,265 227,131 c 126,73 230.00001,132 232.00001,132 2,0 107,-59 233,-131 z m 980,0 228,-132 -2,-265 -3,-265 -220,-128 c -121,-70 -227,-128 -235,-128 -8,0 -114,57 -235,128 l -220,127 -3,266 -2,265 227,131 c 126,73 230,132 232,132 2,0 107,-59 233,-131 z m 980,0 228,-132 -2,-265 -3,-265 -220,-128 c -121,-70 -227,-128 -235,-128 -8,0 -114,57 -235,128 l -220,127 -3,266 -2,265 227,131 c 126,73 230,132 232,132 2,0 107,-59 233,-131 z m 980,0 228,-132 -2,-265 -3,-265 -220,-128 c -121,-70 -227,-128 -235,-128 -8,0 -114,57 -235,128 l -220,127 -3,266 -2,265 227,131 c 126,73 230,132 232,132 2,0 107,-59 233,-131 z m 990,-6 218,-125 -2,-265 -3,-266 -220,-128 c -121,-70 -227,-128 -235,-128 -8,0 -114,57 -235,128 l -220,127 -3,266 -2,265 227,132 c 129,74 234,129 243,125 8,-3 113,-62 232,-131 z m -11280,-842 223,-130 v -266 -266 l -225,-130 c -123,-72 -231,-128 -240,-126 -8,3 -112,61 -230,130 l -215,125 v 267 267 l 220,128 c 121,71 225,129 232,129 6,1 112,-57 235,-128 z m 980,0 223,-130 v -266 -266 l -223,-130 c -123,-71 -227,-129 -231,-129 -5,0 -110,59 -234,131 l -227,131 v 263 263 l 223,130 c 122,72 227,130 234,131 6,1 112,-57 235,-128 z m 980,0 223,-130 v -266 -266 l -223,-130 c -123,-71 -227,-129 -231,-129 -5,0 -110,59 -234,131 l -227,131 v 263 263 l 223,130 c 122,72 227,130 234,131 6,1 112,-57 235,-128 z m 980,0 223,-130 v -266 -266 l -223,-130 c -123,-71 -227,-129 -231,-129 -5,0 -110,59 -234,131 l -227,131 v 263 263 l 223,130 c 122,72 227,130 234,131 6,1 112,-57 235,-128 z m 980,0 223,-130 v -266 -266 l -223,-130 c -123,-71 -227,-129 -231,-129 -5,0 -110,59 -234,131 l -227,131 v 263 263 l 223,130 c 122,72 227,130 234,131 6,1 112,-57 235,-128 z m 980,0 222.99999,-130 v -266 -266 l -222.99999,-130 c -123,-71 -228,-129 -232,-129 -4,0 -109,58 -232,129 l -223,130 v 266 266 l 220,129 c 121,70 225,129 232,129 6,1 112,-57 235,-128 z m 979.99999,0 223.0000001,-130 v -266 -266 l -223.0000001,-130 c -123,-71 -228,-129 -232,-129 -4,0 -109,58 -232,129 l -223,130 v 266 266 l 220,129 c 121,70 225,129 232,129 6,1 112,-57 235,-128 z m 980,0 223.00001,-130 v -266 -266 l -223.00001,-130 c -123,-71 -228,-129 -232,-129 -4,0 -109,58 -232,129 l -222.999998,130 v 266 266 l 219.999998,129 c 121,70 225,129 232,129 6,1 112,-57 235,-128 z m 981.00001,-2 227,-131 v -263 -263 l -227,-131 c -124,-72 -229,-131 -234,-131 -4,0 -108,58 -231,129 l -223,130 v 266 266 l 220,129 c 121,70 225,129 231,129 6,1 113,-58 237,-130 z m 980,0 227,-131 v -263 -263 l -227,-131 c -124,-72 -229,-131 -234,-131 -4,0 -108,58 -231,129 l -223,130 v 266 266 l 220,129 c 121,70 225,129 231,129 6,1 113,-58 237,-130 z m 980,0 227,-131 v -263 -263 l -227,-131 c -124,-72 -229,-131 -234,-131 -4,0 -108,58 -231,129 l -223,130 v 266 266 l 220,129 c 121,70 225,129 231,129 6,1 113,-58 237,-130 z m 980,0 227,-131 v -263 -263 l -227,-131 c -124,-72 -229,-131 -234,-131 -4,0 -108,58 -231,129 l -223,130 v 266 266 l 220,129 c 121,70 225,129 231,129 6,1 113,-58 237,-130 z m 980,2 222,-129 v -267 -267 l -215,-125 c -118,-69 -222,-127 -230,-130 -9,-2 -117,54 -240,126 l -225,130 v 266 266 l 220,129 c 121,70 226,129 233,129 6,1 112,-57 235,-128 z m -11268,-850 220,-127 3,-266 2,-265 -222,-129 c -123,-70 -230,-128 -238,-128 -8,0 -115,57 -238,128 l -222,128 2,265 3,266 220,128 c 121,70 227,128 235,128 8,0 114,-57 235,-128 z m 980,0 220,-127 3,-266 2,-265 -230,-132 -230,-133 -230,133 -230,132 2,265 3,265 220,128 c 121,70 227,128 235,128 8,0 114,-57 235,-128 z m 980,0 220,-127 3,-266 2,-265 -230,-132 -230,-133 -230,133 -230,132 2,265 3,265 220,128 c 121,70 227,128 235,128 8,0 114,-57 235,-128 z m 980,0 220,-127 3,-266 2,-265 -230,-132 -230,-133 -230,133 -230,132 2,265 3,265 220,128 c 121,70 227,128 235,128 8,0 114,-57 235,-128 z m 980,0 220,-128 3,-265 2,-265 -230,-132 -230,-133 -230,133 -230,132 2,265 3,265 220,128 c 121,70 227,128 235,128 8,0 114,-58 235,-128 z m 979.99999,0 220,-128 3,-265 2,-265 -230,-132 -230,-133 -229.99999,133 -230,132 2,265 3,265 220,128 c 121,70 226.99999,128 234.99999,128 8,0 114,-58 235,-128 z m 980,0 220,-128 3,-265 2,-265 -230,-132 -230,-133 -230,133 -230,132 2,265 3,265 220,128 c 121,70 227,128 235,128 8,0 114,-58 235,-128 z m 980.00001,0 220,-128 3,-265 2,-265 -230,-132 -230,-133 -230.00001,133 -230,132 2,265 3,265 220,128 c 121,70 227.00001,128 235.00001,128 8,0 114,-58 235,-128 z m 980,0 220,-128 3,-265 2,-265 -230,-132 -230,-133 -230,133 -230,132 2,265 3,266 220,127 c 121,71 227,128 235,128 8,0 114,-58 235,-128 z m 980,0 220,-128 3,-265 2,-265 -230,-132 -230,-133 -230,133 -230,132 2,265 3,266 220,127 c 121,71 227,128 235,128 8,0 114,-58 235,-128 z m 980,0 220,-128 3,-265 2,-265 -230,-132 -230,-133 -230,133 -230,132 2,265 3,266 220,127 c 121,71 227,128 235,128 8,0 114,-58 235,-128 z m 980,0 220,-128 3,-266 2,-265 -222,-128 c -123,-71 -230,-128 -238,-128 -8,0 -115,58 -238,128 l -222,129 2,265 3,266 220,127 c 121,71 227,128 235,128 8,0 114,-58 235,-128 z m -10292,-846 226,-130 1,-265 v -266 l -230,-132 -231,-133 -230,132 -229,133 2,265 3,266 225,131 c 124,73 227,131 230,130 4,0 108,-59 233,-131 z m 980,0 226,-130 1,-265 v -265 l -230,-133 -230,-132 -230,132 -230,133 2,265 3,265 225,131 c 124,73 227,131 230,130 3,0 108,-59 233,-131 z m 980,0 226,-130 1,-265 v -265 l -230,-133 -230,-132 -230,132 -230,133 2,265 3,265 225,131 c 124,73 227,131 230,130 3,0 108,-59 233,-131 z m 980,0 226,-130 1,-265 v -265 l -230,-133 -230,-132 -230,132 -230,133 2,265 3,265 225,131 c 124,73 227,131 230,130 3,0 108,-59 233,-131 z m 973,2 228.99999,-132 3,-265 2,-265 -229.99999,-133 -230,-132 -230,132 -230,133 2,265 3,265 225,131 c 124,73 225,132 226,133 1,1 104,-59 230,-132 z m 979.99999,0 229.0000001,-132 2.9999998,-265 2,-265 -229.9999999,-133 -230,-132 -230,132 -230,133 2,265 3,265 225,131 c 124,73 225,132 226,133 1,1 104,-59 230,-132 z m 980,0 229.00001,-132 3,-265 2,-265 -230.00001,-133 -230,-132 -230,132 -230,133 2,265 3.000002,265 224.999998,131 c 124,73 225,132 226,133 1,1 104,-59 230,-132 z m 980.00001,0 229,-132 3,-265 2,-265 -230,-133 -230,-132 -230,132 -230,133 v 265 l 1,265 227,131 c 125,73 227,132 228,133 1,1 104,-59 230,-132 z m 980,0 229,-132 3,-265 2,-265 -230,-133 -230,-132 -230,132 -230,133 v 265 l 1,265 227,131 c 125,73 227,132 228,133 1,1 104,-59 230,-132 z m 980,0 229,-132 3,-265 2,-265 -230,-133 -230,-132 -230,132 -230,133 v 265 l 1,265 227,131 c 125,73 227,132 228,133 1,1 104,-59 230,-132 z m 980,0 229,-132 3,-266 2,-265 -229,-133 -230,-132 -231,133 -230,132 v 266 l 1,265 227,131 c 125,73 227,132 228,133 1,1 104,-59 230,-132 z m -9302,-852 226,-130 v -265 -265 l -231,-132 -230,-133 -230,133 -229,132 v 265 265 l 228,132 c 125,72 230,131 234,130 3,-1 108,-60 232,-132 z m 980,0 226,-130 v -265 -265 l -230,-132 -230,-132 -230,132 -229,132 -1,265 v 265 l 228,132 c 125,72 230,131 234,130 3,-1 108,-60 232,-132 z m 980,0 226,-130 v -265 -265 l -230,-132 -230,-132 -230,132 -229,132 -1,265 v 265 l 228,132 c 125,72 230,131 234,130 3,-1 108,-60 232,-132 z m 980,0 226,-130 v -265 -265 l -230,-132 -230,-131 -230,131 -229,132 -1,265 v 265 l 228,132 c 125,72 230,131 234,130 3,-1 108,-60 232,-132 z m 979.99999,0 226,-130 v -265 -265 l -230,-132 -230,-131 -229.99999,131 -230,132 v 265 265 l 228,132 c 125,72 229.99999,131 233.99999,130 3,-1 108,-60 232,-132 z m 980,0 226,-130 v -265 -265 l -230,-132 -230,-131 -230,131 -230,132 v 265 265 l 228,132 c 125,72 230,131 234,130 3,-1 108,-60 232,-132 z m 980.00001,0 226,-130 v -265 l -1,-265 -229,-132 -230,-131 -230.00001,131 -230,132 v 265 265 l 228,132 c 125,72 230.00001,131 234.00001,130 3,-1 108,-60 232,-132 z m 980,0 226,-130 v -265 l -1,-265 -229,-132 -230,-132 -230,132 -230,132 v 265 265 l 228,132 c 125,72 230,131 233,130 4,-1 108,-60 233,-132 z m 980,0 226,-130 v -265 l -1,-265 -229,-132 -230,-132 -230,132 -230,132 v 265 265 l 228,132 c 125,72 230,131 233,130 4,-1 108,-60 233,-132 z m 980,0 226,-130 v -265 -265 l -229,-132 -230,-133 -230,133 -231,132 v 265 265 l 228,132 c 125,72 230,131 233,130 4,-1 108,-60 233,-132 z m -8332,-847 228,-132 -2,-265 -3,-265 -228,-132 -228,-132 -229,132 -229,131 -1,265 v 266 l 228,131 c 125,73 229,133 231,133 2,0 107,-59 233,-132 z m 980,0 228,-132 -2,-265 -3,-265 -220,-128 c -121,-70 -227,-128 -235,-128 -8,1 -114,58 -235,128 l -220,128 -3,265 -2,264 227,132 c 126,73 230,133 232,133 2,0 107,-59 233,-132 z m 980,0 228,-132 -2,-265 -3,-265 -220,-128 c -121,-70 -227,-128 -235,-128 -8,1 -114,58 -235,128 l -220,128 -3,265 -2,264 227,132 c 126,73 230,133 232,133 2,0 107,-59 233,-132 z m 979,0 228.99999,-132 -2,-265 -3,-265 -219.99999,-128 c -121,-70 -227,-127 -235,-127 -8,0 -114,57 -235,127 l -220,128 -3,265 -2,265 227,132 c 126,72 230,131 231,132 2,0 107,-59 233,-132 z m 979.99999,0 228.9999999,-132 -2,-265 -2.9999998,-265 -220.0000001,-128 c -121,-70 -227,-127 -235,-127 -8,0 -114,57 -235,127 l -220,128 -3,265 -2,265 227,132 c 126,72 230,131 231,132 2,0 107,-59 233,-132 z m 980,0 229.00001,-132 -2,-265 -3,-265 -220.00001,-128 c -121,-70 -227,-127 -235,-127 -8,0 -114,57 -235,127 l -219.999998,128 -3.000002,265 -2,265 227,132 c 126,72 230,131 231,132 2,0 107,-59 233,-132 z m 980.00001,0 229,-133 -2,-264 -3,-265 -220,-128 c -121,-70 -227,-127 -235,-127 -8,0 -114,57 -235,127 l -220,128 -3,265 -2,265 227,132 c 126,72 230,132 232,132 2,0 106,-60 232,-132 z m 980,0 229,-133 -2,-264 -3,-265 -220,-128 c -121,-70 -227,-127 -235,-128 -8,0 -114,58 -235,128 l -220,128 -3,265 -2,265 227,132 c 126,72 230,132 232,132 2,0 106,-60 232,-132 z m 980,0 229,-132 v -266 l -1,-265 -229,-131 -229,-132 -228,132 -228,132 -3,265 -2,265 227,132 c 126,72 230,132 232,132 2,0 106,-59 232,-132 z m -7339,-855 218,-125 -2,-265 -3,-265 -222,-129 c -123,-71 -229,-129.00004 -235,-128.00004 -7,0 -112,57.00004 -233,128.00004 l -220,127 -3,266 -2,266 227,131 c 130,75 234,129 243,125 8,-3 113,-62 232,-131 z m 980,0 218,-125 -2,-265 -3,-265 -215,-125 c -118,-69 -222,-127 -231,-130.00004 -8,-2 -116,54.00004 -240,125.00004 l -224,130 -3,265 -2,265 227,131 c 130,75 234,129 243,125 8,-3 113,-62 232,-131 z m 980,0 218,-125 -2,-265 -3,-265 -223,-129 c -123,-71 -227,-129.00004 -232,-129.00004 -5,0 -109,58.00004 -232,129.00004 l -223,129 -3,265 -2,265 227,131 c 130,75 234,129 243,125 8,-3 113,-62 232,-131 z m 979.99999,0 218,-125 -2,-265 -3,-265 -223,-129 c -123,-71 -227,-129.00004 -232,-129.00004 -5,0 -108.99999,58.00004 -231.99999,129.00004 l -223,129 -3,265 -2,265 227,131 c 130,75 233.99999,129 242.99999,125 8,-3 113,-62 232,-131 z m 980,0 218,-125 -2,-265 -3,-265 -215,-125 c -118,-69 -222,-127 -231,-130.00004 -8,-2 -116,54.00004 -240,125.00004 l -224,130 -3,265 -2,265 227,131 c 130,75 234,129 243,125 8,-3 113,-62 232,-131 z m 980.00001,0 218,-125 -2,-265 -3,-265 -223,-129 c -123,-71 -227,-129.00004 -232,-129.00004 -5,0 -109.00001,58.00004 -232.00001,129.00004 l -223,129 -3,265 -2,265 227,131 c 130,75 234.00001,129 243.00001,125 8,-3 113,-62 232,-131 z m 980,0 218,-125 -2,-265 -3,-265 -224,-130 c -124,-71 -232,-127.00004 -240,-125.00004 -9,3.00004 -113,61.00004 -231,130.00004 l -215,125 -3,265 -2,265 227,131 c 130,75 234,129 243,125 8,-3 113,-62 232,-131 z m 980,0 218,-125 -2,-266 -3,-266 -220,-127 c -121,-71 -226,-128.00004 -233,-128.00004 -6,-1 -112,57.00004 -235,128.00004 l -222,129 -3,265 -2,265 227,131 c 130,75 234,129 243,125 8,-3 113,-62 232,-131 z m -6380,-842 223,-129.00004 v -267 -267 l -223,-129 c -123,-70.99999 -228,-128.999988 -232,-128.999988 -5,0 -109,57.999998 -232,128.999988 l -223,130 v 266 267 l 220,128.00004 c 121,71 225,129 232,129 6,1 112,-57 235,-128 z m 980,0 223,-129.00004 v -267 -267 l -223,-129 c -123,-70.99999 -228,-128.999988 -232,-128.999988 -5,0 -109,57.999998 -232,128.999988 l -223,130 v 266 267 l 220,128.00004 c 121,71 225,129 232,129 6,1 112,-57 235,-128 z m 980,0 222.99999,-129.00004 v -267 -266 l -222.99999,-130 c -123,-70.99999 -227,-128.999988 -232,-128.999988 -5,0 -109,57.999998 -232,128.999988 l -223,130 v 266 267 l 220,128.00004 c 121,71 225,129 232,129 6,1 112,-57 235,-128 z m 979.99999,0 L 2.4883901,862.32336 v -267 -266 l -223.0000001,-130 c -123,-70.99999 -227,-128.999988 -232,-128.999988 -5,0 -109,57.999998 -232,128.999988 l -223,130 v 266 267 l 220,128.00004 c 121,71 225,129 232,129 6,1 112,-57 235,-128 z m 980,0 223.00001,-129.00004 v -267 -266 l -223.00001,-130 c -123,-70.99999 -227,-128.999988 -232,-128.999988 -5,0 -109,57.999998 -232,128.999988 l -222.999998,130 v 266 267 L 292.48839,990.3234 c 121,71 225,129 232,129 6,1 112,-57 235,-128 z m 980.00001,0 223,-129.00004 v -267 -266 l -223,-130 c -123,-70.99999 -227,-128.999988 -232,-128.999988 -4,0 -109,57.999998 -232,128.999988 l -223,129 v 267 267 l 220,128.00004 c 121,71 225,129 232,129 6,1 112,-57 235,-128 z m 980,0 223,-129.00004 v -267 -266 l -223,-130 c -123,-70.99999 -227,-128.999988 -232,-128.999988 -4,0 -109,57.999998 -232,128.999988 l -223,129 v 267 267 l 220,128.00004 c 121,71 225,129 232,129 6,1 112,-57 235,-128 z"
         id="path4-7"
         style="fill:#b2b2b2;fill-opacity:1;stroke:none;stroke-opacity:1" /><path
         style="fill:none;stroke:#000000;stroke-width:120;stroke-linecap:round;stroke-linejoin:round;stroke-dasharray:none;stroke-opacity:1;marker-start:url(#Dot);marker-mid:url(#Dot);marker-end:url(#Dot)"
         d="m -3399.4984,6270.2737 -988.3401,587.1328 -982.4688,-581.2614 V 5152.7645 l 984.4258,-569.5188 992.2544,577.3472"
         id="path7995" /><path
         style="fill:none;stroke:#000000;stroke-width:120;stroke-linecap:round;stroke-linejoin:round;stroke-dasharray:none;stroke-opacity:1;marker-start:url(#Dot-9);marker-mid:url(#Dot-9);marker-end:url(#Dot-9)"
         d="m 2473.4274,9667.814 -988.3401,587.133 -982.4688,-581.261 V 8550.305 l 984.4258,-569.5182 986.6715,620.3032 -965.7654,-0.764"
         id="path7995-6"
         sodipodi:nodetypes="ccccccc" /><path
         style="fill:none;stroke:#000000;stroke-width:120;stroke-linecap:round;stroke-linejoin:round;stroke-dasharray:none;stroke-opacity:1;marker-start:url(#Dot);marker-mid:url(#Dot);marker-end:url(#Dot)"
         d="m -2429.055,6271.7418 3.8448,-1693.693 0.4749,576.7994 490.9577,268.0972 489.6883,-267.0851 2.1377,-573.3289 490.36542,-271.4931 495.95138,270.9798 491.2793,-271.2415 487.12755,265.706 -488.51145,-267.0899 -491.2793,274.0093 1.3839,572.9285 484.35988,276.777 494.88882,-280.1421 -982.0164,-3.5544 982.13872,3.5544 483.39558,269.0709 500.9664,-262.9381 -7.2551,-619.2275 7.2551,617.8436 487.1276,267.0898 494.0472,-271.2414 -8.9952,-619.9806 7.6114,619.9806 487.1273,275.3931 498.1987,-276.777 -4.152,-611.6772"
         id="path12353"
         sodipodi:nodetypes="cccccccccccccccccccccccccccc" /><path
         style="fill:none;stroke:#000000;stroke-width:120;stroke-linecap:butt;stroke-linejoin:miter;stroke-dasharray:none;stroke-opacity:1;marker-start:url(#Dot);marker-mid:url(#Dot);marker-end:url(#Dot)"
         d="m 2000.1657,5422.8455 -5.382,576.8579 480.8198,274.1142 6.228,580.5399 485.6355,269.2158 2.9355,582.1176 -2.9355,-582.3622 -485.241,-268.9802 -492.5798,271.4266 -2.202,575.8793"
         id="path17086" /><path
         style="fill:none;stroke:#000000;stroke-width:120;stroke-linecap:round;stroke-linejoin:round;stroke-dasharray:none;stroke-opacity:1;marker-start:url(#Dot);marker-mid:url(#Dot);marker-end:url(#Dot-9)"
         d="m 3465.062,4536.9214 484.3845,-257.3594 484.3844,273.0165 503.955,-284.7593 -5.871,-571.476 -488.2987,-278.8882 -493.1918,281.8237 -0.735,580.0387 11.0711,-1706.1097 -11.3186,1125.8183 493.9605,-281.7938 486.3496,-844.9478"
         id="path24170"
         sodipodi:nodetypes="cccccccccccc" /><path
         style="fill:none;stroke:#000000;stroke-width:120;stroke-linecap:butt;stroke-linejoin:miter;stroke-dasharray:none;stroke-opacity:1;marker-start:url(#Dot-9);marker-mid:url(#Dot);marker-end:url(#Dot-9)"
         d="m 5916.6342,4287.4365 -5.5357,-1713.2498 985.3259,-2.7674"
         id="path25072" /></g></g></svg>
