<?xml version="1.0" encoding="UTF-8" standalone="no"?>
<svg
   version="1.0"
   width="1448.0895pt"
   height="955.17358pt"
   viewBox="0 0 1448.0895 955.17359"
   preserveAspectRatio="xMidYMid"
   id="svg8"
   sodipodi:docname="156568.svg"
   inkscape:version="1.2 (dc2aedaf03, 2022-05-15)"
   xmlns:inkscape="http://www.inkscape.org/namespaces/inkscape"
   xmlns:sodipodi="http://sodipodi.sourceforge.net/DTD/sodipodi-0.dtd"
   xmlns="http://www.w3.org/2000/svg"
   xmlns:svg="http://www.w3.org/2000/svg">
  <defs
     id="defs12">
    <marker
       style="overflow:visible"
       id="Dot"
       refX="0"
       refY="0"
       orient="auto"
       inkscape:stockid="Dot"
       markerWidth="2"
       markerHeight="2"
       viewBox="0 0 5.6666667 5.6666667"
       inkscape:isstock="true"
       inkscape:collect="always"
       preserveAspectRatio="xMidYMid">
      <path
         transform="scale(0.5)"
         style="fill:context-stroke;fill-rule:evenodd;stroke:context-stroke;stroke-width:1pt"
         d="M 5,0 C 5,2.76 2.76,5 0,5 -2.76,5 -5,2.76 -5,0 c 0,-2.76 2.3,-5 5,-5 2.76,0 5,2.24 5,5 z"
         id="Dot1"
         sodipodi:nodetypes="sssss" />
    </marker>
    <marker
       style="overflow:visible"
       id="Dot-9"
       refX="0"
       refY="0"
       orient="auto"
       inkscape:stockid="Dot"
       markerWidth="2"
       markerHeight="2"
       viewBox="0 0 5.6666667 5.6666667"
       inkscape:isstock="true"
       inkscape:collect="always"
       preserveAspectRatio="xMidYMid">
      <path
         transform="scale(0.5)"
         style="fill:context-stroke;fill-rule:evenodd;stroke:context-stroke;stroke-width:1pt"
         d="M 5,0 C 5,2.76 2.76,5 0,5 -2.76,5 -5,2.76 -5,0 c 0,-2.76 2.3,-5 5,-5 2.76,0 5,2.24 5,5 z"
         id="Dot1-1"
         sodipodi:nodetypes="sssss" />
    </marker>
  </defs>
  <sodipodi:namedview
     id="namedview10"
     pagecolor="#ffffff"
     bordercolor="#666666"
     borderopacity="1.0"
     inkscape:showpageshadow="2"
     inkscape:pageopacity="0.0"
     inkscape:pagecheckerboard="0"
     inkscape:deskcolor="#d1d1d1"
     inkscape:document-units="pt"
     showgrid="false"
     inkscape:zoom="0.67744063"
     inkscape:cx="1082.7517"
     inkscape:cy="642.12269"
     inkscape:window-width="2560"
     inkscape:window-height="1400"
     inkscape:window-x="-12"
     inkscape:window-y="-12"
     inkscape:window-maximized="1"
     inkscape:current-layer="g6" />
  <metadata
     id="metadata2">
Created by potrace 1.15, written by Peter Selinger 2001-2017
</metadata>
  <g
     transform="matrix(0.1,0,0,-0.1,628.64648,1096.8834)"
     fill="#000000"
     stroke="none"
     id="g6">
    <path
       d="m 3193,11222 -253,-147 -2,-285 -3,-284 -240,-138 -240,-138 -5,-286 -5,-286 -242,-140 -243,-140 v -283 -282 l -242,-140 -243,-140 -3,-285 -2,-284 -243,-140 -242,-140 -3,-284 -3,-285 L 735,6975 491,6835 488,6550 485,6265 242,6125 0,5985 v -300 -300 l 243,-140 242,-140 3,-285 3,-285 244,-140 244,-140 3,-285 3,-284 242,-140 243,-140 2,-284 3,-285 242,-140 243,-140 v -282 -283 l 243,-140 242,-140 5,-286 5,-286 240,-138 240,-138 3,-284 2,-285 252,-145 C 3330,70 3448,4 3455,2 c 6,-2 121,60 253,137 l 242,139 241,-139 C 4323,63 4435,0 4440,0 c 5,0 117,63 249,139 l 241,139 241,-139 C 5303,63 5415,0 5420,0 c 5,0 117,63 249,139 l 241,139 241,-139 C 6283,63 6395,0 6400,0 c 5,0 117,63 249,139 l 241,139 241,-139 C 7263,63 7375,0 7380,0 c 5,0 117,63 249,139 l 241,139 241,-139 C 8243,63 8355,0 8360,0 c 5,0 117,63 249,139 l 241,139 242,-139 C 9224,62 9339,0 9345,2 c 7,2 125,68 263,148 l 252,145 2,285 3,284 240,138 240,138 5,286 5,286 243,140 242,140 v 283 282 l 242,140 243,140 3,285 2,284 243,140 242,140 3,284 3,285 244,140 244,140 3,285 3,285 243,140 242,140 v 300 300 l -242,140 -243,140 -3,285 -3,285 -244,140 -244,140 -3,285 -3,284 -242,140 -243,140 -2,284 -3,285 -242,140 -243,140 v 282 283 l -242,140 -243,140 -5,286 -5,286 -240,138 -240,138 -3,284 -2,285 -252,145 c -138,80 -256,146 -263,148 -6,2 -121,-60 -253,-137 l -242,-139 -241,139 c -132,76 -244,139 -249,139 -5,0 -117,-63 -249,-139 l -241,-139 -241,139 c -132,76 -244,139 -249,139 -5,0 -117,-63 -249,-139 l -241,-139 -241,139 c -132,76 -244,139 -249,139 -5,0 -117,-63 -249,-139 l -241,-139 -241,139 c -132,76 -244,139 -249,139 -5,0 -117,-63 -249,-139 l -241,-139 -241,139 c -132,76 -244,139 -249,139 -5,0 -117,-63 -249,-139 l -241,-139 -241,139 c -132,76 -246,139 -252,138 -7,0 -126,-67 -264,-147 z m 499,-51 223,-129 v -267 -267 l -223,-129 c -123,-71 -227,-129 -232,-129 -4,0 -109,58 -232,129 l -223,129 v 267 266 l 220,129 c 121,71 225,129 232,129 6,1 112,-57 235,-128 z m 980,0 223,-129 v -267 -267 l -223,-129 c -123,-71 -227,-129 -232,-129 -4,0 -109,58 -232,129 l -223,129 v 267 266 l 220,129 c 121,71 225,129 232,129 6,1 112,-57 235,-128 z m 980,0 223,-130 v -266 -267 l -223,-129 c -123,-71 -227,-129 -232,-129 -5,0 -109,58 -232,129 l -223,129 v 267 266 l 220,129 c 121,71 225,129 232,129 6,1 112,-57 235,-128 z m 980,0 223,-130 v -266 -267 l -223,-129 c -123,-71 -227,-129 -232,-129 -5,0 -109,58 -232,129 l -223,129 v 267 266 l 220,129 c 121,71 225,129 232,129 6,1 112,-57 235,-128 z m 980,0 223,-130 v -266 -267 l -223,-129 c -123,-71 -227,-129 -232,-129 -5,0 -109,58 -232,129 l -223,129 v 267 266 l 220,129 c 121,71 225,129 232,129 6,1 112,-57 235,-128 z m 980,0 223,-130 v -266 -267 l -223,-129 c -123,-71 -228,-129 -232,-129 -5,0 -109,58 -232,129 l -223,129 v 267 267 l 220,128 c 121,71 225,129 232,129 6,1 112,-57 235,-128 z m 980,0 223,-130 v -266 -267 l -223,-129 c -123,-71 -228,-129 -232,-129 -5,0 -109,58 -232,129 l -223,129 v 267 267 l 220,128 c 121,71 225,129 232,129 6,1 112,-57 235,-128 z m -6369,-850 222,-129 v -267 -266 l -227,-131 -228,-131 -227,131 -228,131 v 267 268 l 220,127 c 121,71 226,128 233,128 6,1 112,-57 235,-128 z m 980,0 222,-129 v -267 -266 l -227,-131 -228,-131 -227,131 -228,131 v 267 266 l 220,128 c 121,71 226,129 233,129 6,1 112,-57 235,-128 z m 979,0 223,-129 v -266 -267 l -227,-131 -228,-131 -227,131 -228,131 v 267 266 l 220,128 c 121,71 225,129 232,129 6,1 112,-57 235,-128 z m 980,0 223,-129 v -266 -267 l -227,-131 -228,-131 -227,131 -228,131 v 267 266 l 220,128 c 121,71 225,129 232,129 6,1 112,-57 235,-128 z m 981,0 222,-129 v -267 -266 l -227,-131 -228,-131 -227,131 -228,131 v 267 266 l 220,128 c 121,71 226,129 233,129 6,1 112,-57 235,-128 z m 979,0 223,-129 v -266 -267 l -227,-131 -228,-131 -227,131 -228,131 v 267 266 l 220,128 c 121,71 225,129 232,129 6,1 112,-57 235,-128 z m 980,0 223,-129 v -266 -267 l -227,-131 -228,-131 -227,131 -228,131 v 266 267 l 220,128 c 121,71 225,129 232,129 6,1 112,-57 235,-128 z m 983,0 220,-127 v -268 -267 l -227,-131 -228,-131 -227,131 -228,131 v 266 267 l 220,128 c 121,71 227,129 235,129 8,0 114,-57 235,-128 z m -7300,-878 170,-99 3,-265 2,-265 -230,-133 -230,-132 -230,132 -230,133 v 266 l 1,265 227,131 227,131 60,-33 c 33,-18 137,-77 230,-131 z m 8015,-363 v -266 l -230,-133 -230,-132 -230,132 -230,133 2,265 3,265 228,132 228,132 229,-132 229,-131 z m -7085,392 220,-128 3,-265 2,-265 -230,-133 -230,-132 -230,133 -230,133 2,264 3,265 220,128 c 121,70 227,127 235,128 8,0 114,-58 235,-128 z m 980,0 220,-128 3,-265 2,-265 -230,-133 -230,-132 -230,133 -230,133 2,264 3,265 220,128 c 121,70 227,127 235,127 8,0 114,-57 235,-127 z m 980,0 220,-128 3,-265 2,-265 -230,-133 -230,-132 -230,132 -230,133 2,265 3,265 220,128 c 121,70 227,127 235,127 8,0 114,-57 235,-127 z m 980,0 220,-128 3,-265 2,-265 -230,-133 -230,-132 -230,132 -230,133 2,265 3,265 220,128 c 121,70 227,127 235,127 8,0 114,-57 235,-127 z m 980,0 220,-128 3,-265 2,-265 -230,-133 -230,-132 -230,132 -230,133 2,265 3,265 220,128 c 121,70 227,127 235,127 8,0 114,-57 235,-127 z m 980,0 220,-128 3,-265 2,-264 -230,-133 -230,-133 -230,132 -230,133 2,265 3,265 220,128 c 121,70 227,128 235,128 8,-1 114,-58 235,-128 z m 980,0 220,-128 3,-265 2,-264 -230,-133 -230,-133 -230,132 -230,133 2,265 3,265 220,128 c 121,70 227,128 235,128 8,-1 114,-58 235,-128 z m -7352,-847 227,-130 v -265 -265 l -230,-132 -229,-132 -231,132 -230,132 v 265 265 l 228,132 c 125,72 230,131 233,130 3,-1 108,-60 232,-132 z m 980,0 227,-130 v -265 -265 l -230,-132 -229,-132 -231,132 -230,132 v 265 l 1,265 227,132 c 125,72 230,130 233,130 3,-1 108,-60 232,-132 z m 980,0 227,-130 v -265 -265 l -230,-132 -229,-132 -231,132 -230,132 v 265 l 1,265 227,132 c 125,72 230,130 233,130 3,-1 108,-60 232,-132 z m 980,0 227,-130 v -265 -265 l -230,-132 -230,-133 -230,133 -230,132 v 265 l 1,265 227,132 c 125,72 230,130 233,130 3,-1 107,-60 232,-132 z m 980,0 227,-130 v -265 -265 l -230,-132 -230,-133 -230,133 -230,132 v 265 265 l 228,131 c 125,73 230,131 233,130 3,0 107,-59 232,-131 z m 980,0 227,-130 v -265 -265 l -230,-132 -230,-133 -230,133 -230,132 v 265 265 l 228,131 c 125,73 230,131 233,130 3,0 107,-59 232,-131 z m 980,0 226,-130 1,-265 v -265 l -230,-132 -230,-133 -230,133 -230,132 v 265 265 l 228,131 c 125,73 230,131 233,130 3,0 108,-59 232,-131 z m 980,0 226,-130 1,-265 v -265 l -230,-132 -231,-132 -229,132 -230,132 v 265 265 l 228,132 c 125,72 230,130 233,130 3,-1 108,-60 232,-132 z m 980,0 226,-130 1,-265 v -265 l -230,-132 -231,-132 -229,132 -230,132 v 265 265 l 228,132 c 125,72 230,130 233,130 3,-1 108,-60 232,-132 z m 981,0 226,-130 v -265 -265 l -230,-132 -231,-132 -229,132 -230,132 v 265 265 l 228,132 c 125,72 230,130 234,130 4,-1 109,-60 232,-132 z m -9313,-847 229,-132 v -266 l -1,-265 -229,-132 -230,-131 -228,132 -227,131 -3,266 -2,265 227,132 c 126,72 229,132 231,132 2,0 106,-60 233,-132 z m 979,0 230,-133 v -265 l -1,-265 -230,-132 -229,-131 -228,132 -227,131 -3,265 -2,265 227,132 c 126,73 229,132 231,132 1,1 106,-59 232,-131 z m 980,0 230,-133 v -265 l -1,-265 -230,-132 -229,-131 -228,132 -227,131 -3,265 -2,265 227,132 c 126,73 229,132 231,132 1,1 106,-59 232,-131 z m 980,0 230,-133 v -265 l -1,-265 -230,-132 -229,-131 -228,132 -227,131 -3,265 -2,265 227,132 c 126,73 229,132 231,132 1,1 106,-59 232,-131 z m 980,0 230,-133 -2,-265 -3,-265 -227,-131 -228,-132 -227,132 -228,131 -3,265 -2,265 227,132 c 126,73 229,132 231,132 1,1 106,-59 232,-131 z m 980,0 230,-133 -2,-265 -3,-265 -227,-131 -228,-132 -227,132 -228,131 -3,265 -2,265 227,132 c 126,73 229,132 231,132 1,1 106,-59 232,-131 z m 980,0 230,-133 -2,-265 -3,-265 -227,-131 -228,-132 -227,132 -228,131 -3,265 -2,265 227,132 c 126,73 229,132 231,132 1,1 106,-59 232,-131 z m 980,0 230,-133 -2,-265 -3,-265 -227,-131 -228,-132 -229,131 -230,132 -1,265 v 265 l 228,132 c 125,73 228,132 230,132 1,1 106,-59 232,-131 z m 980,0 230,-133 -2,-265 -3,-265 -227,-131 -228,-132 -229,131 -230,132 -1,265 v 265 l 228,132 c 125,73 228,132 230,132 1,1 106,-59 232,-131 z m 980,0 230,-133 -2,-265 -3,-265 -227,-131 -228,-132 -229,131 -230,132 -1,265 v 265 l 228,132 c 125,73 228,132 230,132 1,1 106,-59 232,-131 z m 982,0 228,-132 -2,-265 -3,-266 -227,-131 -228,-132 -230,131 -229,132 -1,265 v 266 l 228,131 c 125,73 229,132 231,133 2,0 107,-59 233,-132 z m -10280,-855 218,-126 -2,-265 -3,-266 -220,-127 c -121,-71 -227,-128 -235,-128 -8,0 -114,58 -235,128 l -220,128 -3,266 -2,265 227,131 c 126,72 234,129 242,126 8,-3 112,-62 233,-132 z m 970,6 228,-132 -2,-265 -3,-266 -220,-127 c -121,-71 -227,-128 -235,-128 -8,0 -114,58 -235,128 l -220,128 -3,265 -2,265 227,131 c 126,73 230,132 232,132 2,0 107,-59 233,-131 z m 980,0 228,-132 -2,-265 -3,-266 -220,-127 c -121,-71 -227,-128 -235,-128 -8,0 -114,58 -235,128 l -220,128 -3,265 -2,265 227,131 c 126,73 230,132 232,132 2,0 107,-59 233,-131 z m 980,0 228,-132 -2,-265 -3,-266 -220,-127 c -121,-71 -227,-128 -235,-128 -8,0 -114,58 -235,128 l -220,128 -3,265 -2,265 227,131 c 126,73 230,132 232,132 2,0 107,-59 233,-131 z m 980,0 228,-132 -2,-265 -3,-265 -220,-128 c -121,-70 -227,-128 -235,-128 -8,0 -114,58 -235,128 l -220,128 -3,265 -2,265 227,131 c 126,73 230,132 232,132 2,0 107,-59 233,-131 z m 980,0 228,-132 -2,-265 -3,-265 -220,-128 c -121,-70 -227,-128 -235,-128 -8,0 -114,58 -235,128 l -220,128 -3,265 -2,265 227,131 c 126,73 230,132 232,132 2,0 107,-59 233,-131 z m 980,0 228,-132 -2,-265 -3,-265 -220,-128 c -121,-70 -227,-128 -235,-128 -8,0 -114,58 -235,128 l -220,128 -3,265 -2,265 227,131 c 126,73 230,132 232,132 2,0 107,-59 233,-131 z m 980,0 228,-132 -2,-265 -3,-265 -220,-128 c -121,-70 -227,-128 -235,-128 -8,0 -114,58 -235,128 l -220,128 -3,265 -2,265 227,131 c 126,73 230,132 232,132 2,0 107,-59 233,-131 z m 980,0 228,-132 -2,-265 -3,-265 -220,-128 c -121,-70 -227,-128 -235,-128 -8,0 -114,57 -235,128 l -220,127 -3,266 -2,265 227,131 c 126,73 230,132 232,132 2,0 107,-59 233,-131 z m 980,0 228,-132 -2,-265 -3,-265 -220,-128 c -121,-70 -227,-128 -235,-128 -8,0 -114,57 -235,128 l -220,127 -3,266 -2,265 227,131 c 126,73 230,132 232,132 2,0 107,-59 233,-131 z m 980,0 228,-132 -2,-265 -3,-265 -220,-128 c -121,-70 -227,-128 -235,-128 -8,0 -114,57 -235,128 l -220,127 -3,266 -2,265 227,131 c 126,73 230,132 232,132 2,0 107,-59 233,-131 z m 990,-6 218,-125 -2,-265 -3,-266 -220,-128 c -121,-70 -227,-128 -235,-128 -8,0 -114,57 -235,128 l -220,127 -3,266 -2,265 227,132 c 129,74 234,129 243,125 8,-3 113,-62 232,-131 z M 752,6081 975,5951 V 5685 5419 L 750,5289 c -123,-72 -231,-128 -240,-126 -8,3 -112,61 -230,130 L 65,5418 v 267 267 l 220,128 c 121,71 225,129 232,129 6,1 112,-57 235,-128 z m 980,0 223,-130 v -266 -266 l -223,-130 c -123,-71 -227,-129 -231,-129 -5,0 -110,59 -234,131 l -227,131 v 263 263 l 223,130 c 122,72 227,130 234,131 6,1 112,-57 235,-128 z m 980,0 223,-130 v -266 -266 l -223,-130 c -123,-71 -227,-129 -231,-129 -5,0 -110,59 -234,131 l -227,131 v 263 263 l 223,130 c 122,72 227,130 234,131 6,1 112,-57 235,-128 z m 980,0 223,-130 v -266 -266 l -223,-130 c -123,-71 -227,-129 -231,-129 -5,0 -110,59 -234,131 l -227,131 v 263 263 l 223,130 c 122,72 227,130 234,131 6,1 112,-57 235,-128 z m 980,0 223,-130 v -266 -266 l -223,-130 c -123,-71 -227,-129 -231,-129 -5,0 -110,59 -234,131 l -227,131 v 263 263 l 223,130 c 122,72 227,130 234,131 6,1 112,-57 235,-128 z m 980,0 223,-130 v -266 -266 l -223,-130 c -123,-71 -228,-129 -232,-129 -4,0 -109,58 -232,129 l -223,130 v 266 266 l 220,129 c 121,70 225,129 232,129 6,1 112,-57 235,-128 z m 980,0 223,-130 v -266 -266 l -223,-130 c -123,-71 -228,-129 -232,-129 -4,0 -109,58 -232,129 l -223,130 v 266 266 l 220,129 c 121,70 225,129 232,129 6,1 112,-57 235,-128 z m 980,0 223,-130 v -266 -266 l -223,-130 c -123,-71 -228,-129 -232,-129 -4,0 -109,58 -232,129 l -223,130 v 266 266 l 220,129 c 121,70 225,129 232,129 6,1 112,-57 235,-128 z m 981,-2 227,-131 v -263 -263 l -227,-131 c -124,-72 -229,-131 -234,-131 -4,0 -108,58 -231,129 l -223,130 v 266 266 l 220,129 c 121,70 225,129 231,129 6,1 113,-58 237,-130 z m 980,0 227,-131 v -263 -263 l -227,-131 c -124,-72 -229,-131 -234,-131 -4,0 -108,58 -231,129 l -223,130 v 266 266 l 220,129 c 121,70 225,129 231,129 6,1 113,-58 237,-130 z m 980,0 227,-131 v -263 -263 l -227,-131 c -124,-72 -229,-131 -234,-131 -4,0 -108,58 -231,129 l -223,130 v 266 266 l 220,129 c 121,70 225,129 231,129 6,1 113,-58 237,-130 z m 980,0 227,-131 v -263 -263 l -227,-131 c -124,-72 -229,-131 -234,-131 -4,0 -108,58 -231,129 l -223,130 v 266 266 l 220,129 c 121,70 225,129 231,129 6,1 113,-58 237,-130 z m 980,2 222,-129 v -267 -267 l -215,-125 c -118,-69 -222,-127 -230,-130 -9,-2 -117,54 -240,126 l -225,130 v 266 266 l 220,129 c 121,70 226,129 233,129 6,1 112,-57 235,-128 z m -11268,-850 220,-127 3,-266 2,-265 -222,-129 c -123,-70 -230,-128 -238,-128 -8,0 -115,57 -238,128 l -222,128 2,265 3,266 220,128 c 121,70 227,128 235,128 8,0 114,-57 235,-128 z m 980,0 220,-127 3,-266 2,-265 -230,-132 -230,-133 -230,133 -230,132 2,265 3,265 220,128 c 121,70 227,128 235,128 8,0 114,-57 235,-128 z m 980,0 220,-127 3,-266 2,-265 -230,-132 -230,-133 -230,133 -230,132 2,265 3,265 220,128 c 121,70 227,128 235,128 8,0 114,-57 235,-128 z m 980,0 220,-127 3,-266 2,-265 -230,-132 -230,-133 -230,133 -230,132 2,265 3,265 220,128 c 121,70 227,128 235,128 8,0 114,-57 235,-128 z m 980,0 220,-128 3,-265 2,-265 -230,-132 -230,-133 -230,133 -230,132 2,265 3,265 220,128 c 121,70 227,128 235,128 8,0 114,-58 235,-128 z m 980,0 220,-128 3,-265 2,-265 -230,-132 -230,-133 -230,133 -230,132 2,265 3,265 220,128 c 121,70 227,128 235,128 8,0 114,-58 235,-128 z m 980,0 220,-128 3,-265 2,-265 -230,-132 -230,-133 -230,133 -230,132 2,265 3,265 220,128 c 121,70 227,128 235,128 8,0 114,-58 235,-128 z m 980,0 220,-128 3,-265 2,-265 -230,-132 -230,-133 -230,133 -230,132 2,265 3,265 220,128 c 121,70 227,128 235,128 8,0 114,-58 235,-128 z m 980,0 220,-128 3,-265 2,-265 -230,-132 -230,-133 -230,133 -230,132 2,265 3,266 220,127 c 121,71 227,128 235,128 8,0 114,-58 235,-128 z m 980,0 220,-128 3,-265 2,-265 -230,-132 -230,-133 -230,133 -230,132 2,265 3,266 220,127 c 121,71 227,128 235,128 8,0 114,-58 235,-128 z m 980,0 220,-128 3,-265 2,-265 -230,-132 -230,-133 -230,133 -230,132 2,265 3,266 220,127 c 121,71 227,128 235,128 8,0 114,-58 235,-128 z m 980,0 220,-128 3,-266 2,-265 -222,-128 c -123,-71 -230,-128 -238,-128 -8,0 -115,58 -238,128 l -222,129 2,265 3,266 220,127 c 121,71 227,128 235,128 8,0 114,-58 235,-128 z m -10292,-846 226,-130 1,-265 v -266 l -230,-132 -231,-133 -230,132 -229,133 2,265 3,266 225,131 c 124,73 227,131 230,130 4,0 108,-59 233,-131 z m 980,0 226,-130 1,-265 v -265 l -230,-133 -230,-132 -230,132 -230,133 2,265 3,265 225,131 c 124,73 227,131 230,130 3,0 108,-59 233,-131 z m 980,0 226,-130 1,-265 v -265 l -230,-133 -230,-132 -230,132 -230,133 2,265 3,265 225,131 c 124,73 227,131 230,130 3,0 108,-59 233,-131 z m 980,0 226,-130 1,-265 v -265 l -230,-133 -230,-132 -230,132 -230,133 2,265 3,265 225,131 c 124,73 227,131 230,130 3,0 108,-59 233,-131 z m 973,2 229,-132 3,-265 2,-265 -230,-133 -230,-132 -230,132 -230,133 2,265 3,265 225,131 c 124,73 225,132 226,133 1,1 104,-59 230,-132 z m 980,0 229,-132 3,-265 2,-265 -230,-133 -230,-132 -230,132 -230,133 2,265 3,265 225,131 c 124,73 225,132 226,133 1,1 104,-59 230,-132 z m 980,0 229,-132 3,-265 2,-265 -230,-133 -230,-132 -230,132 -230,133 2,265 3,265 225,131 c 124,73 225,132 226,133 1,1 104,-59 230,-132 z m 980,0 229,-132 3,-265 2,-265 -230,-133 -230,-132 -230,132 -230,133 v 265 l 1,265 227,131 c 125,73 227,132 228,133 1,1 104,-59 230,-132 z m 980,0 229,-132 3,-265 2,-265 -230,-133 -230,-132 -230,132 -230,133 v 265 l 1,265 227,131 c 125,73 227,132 228,133 1,1 104,-59 230,-132 z m 980,0 229,-132 3,-265 2,-265 -230,-133 -230,-132 -230,132 -230,133 v 265 l 1,265 227,131 c 125,73 227,132 228,133 1,1 104,-59 230,-132 z m 980,0 229,-132 3,-266 2,-265 -229,-133 -230,-132 -231,133 -230,132 v 266 l 1,265 227,131 c 125,73 227,132 228,133 1,1 104,-59 230,-132 z m -9302,-852 226,-130 v -265 -265 l -231,-132 -230,-133 -230,133 -229,132 v 265 265 l 228,132 c 125,72 230,131 234,130 3,-1 108,-60 232,-132 z m 980,0 226,-130 v -265 -265 l -230,-132 -230,-132 -230,132 -229,132 -1,265 v 265 l 228,132 c 125,72 230,131 234,130 3,-1 108,-60 232,-132 z m 980,0 226,-130 v -265 -265 l -230,-132 -230,-132 -230,132 -229,132 -1,265 v 265 l 228,132 c 125,72 230,131 234,130 3,-1 108,-60 232,-132 z m 980,0 226,-130 v -265 -265 l -230,-132 -230,-131 -230,131 -229,132 -1,265 v 265 l 228,132 c 125,72 230,131 234,130 3,-1 108,-60 232,-132 z m 980,0 226,-130 v -265 -265 l -230,-132 -230,-131 -230,131 -230,132 v 265 265 l 228,132 c 125,72 230,131 234,130 3,-1 108,-60 232,-132 z m 980,0 226,-130 v -265 -265 l -230,-132 -230,-131 -230,131 -230,132 v 265 265 l 228,132 c 125,72 230,131 234,130 3,-1 108,-60 232,-132 z m 980,0 226,-130 v -265 l -1,-265 -229,-132 -230,-131 -230,131 -230,132 v 265 265 l 228,132 c 125,72 230,131 234,130 3,-1 108,-60 232,-132 z m 980,0 226,-130 v -265 l -1,-265 -229,-132 -230,-132 -230,132 -230,132 v 265 265 l 228,132 c 125,72 230,131 233,130 4,-1 108,-60 233,-132 z m 980,0 226,-130 v -265 l -1,-265 -229,-132 -230,-132 -230,132 -230,132 v 265 265 l 228,132 c 125,72 230,131 233,130 4,-1 108,-60 233,-132 z m 980,0 226,-130 v -265 -265 l -229,-132 -230,-133 -230,133 -231,132 v 265 265 l 228,132 c 125,72 230,131 233,130 4,-1 108,-60 233,-132 z m -8332,-847 228,-132 -2,-265 -3,-265 -228,-132 -228,-132 -229,132 -229,131 -1,265 v 266 l 228,131 c 125,73 229,133 231,133 2,0 107,-59 233,-132 z m 980,0 228,-132 -2,-265 -3,-265 -220,-128 c -121,-70 -227,-128 -235,-128 -8,1 -114,58 -235,128 l -220,128 -3,265 -2,264 227,132 c 126,73 230,133 232,133 2,0 107,-59 233,-132 z m 980,0 228,-132 -2,-265 -3,-265 -220,-128 c -121,-70 -227,-128 -235,-128 -8,1 -114,58 -235,128 l -220,128 -3,265 -2,264 227,132 c 126,73 230,133 232,133 2,0 107,-59 233,-132 z m 979,0 229,-132 -2,-265 -3,-265 -220,-128 c -121,-70 -227,-127 -235,-127 -8,0 -114,57 -235,127 l -220,128 -3,265 -2,265 227,132 c 126,72 230,131 231,132 2,0 107,-59 233,-132 z m 980,0 229,-132 -2,-265 -3,-265 -220,-128 c -121,-70 -227,-127 -235,-127 -8,0 -114,57 -235,127 l -220,128 -3,265 -2,265 227,132 c 126,72 230,131 231,132 2,0 107,-59 233,-132 z m 980,0 229,-132 -2,-265 -3,-265 -220,-128 c -121,-70 -227,-127 -235,-127 -8,0 -114,57 -235,127 l -220,128 -3,265 -2,265 227,132 c 126,72 230,131 231,132 2,0 107,-59 233,-132 z m 980,0 229,-133 -2,-264 -3,-265 -220,-128 c -121,-70 -227,-127 -235,-127 -8,0 -114,57 -235,127 l -220,128 -3,265 -2,265 227,132 c 126,72 230,132 232,132 2,0 106,-60 232,-132 z m 980,0 229,-133 -2,-264 -3,-265 -220,-128 c -121,-70 -227,-127 -235,-128 -8,0 -114,58 -235,128 l -220,128 -3,265 -2,265 227,132 c 126,72 230,132 232,132 2,0 106,-60 232,-132 z m 980,0 229,-132 v -266 l -1,-265 -229,-131 -229,-132 -228,132 -228,132 -3,265 -2,265 227,132 c 126,72 230,132 232,132 2,0 106,-59 232,-132 z m -7339,-855 218,-125 -2,-265 -3,-265 -222,-129 c -123,-71 -229,-129 -235,-128 -7,0 -112,57 -233,128 l -220,127 -3,266 -2,266 227,131 c 130,75 234,129 243,125 8,-3 113,-62 232,-131 z m 980,0 218,-125 -2,-265 -3,-265 -215,-125 c -118,-69 -222,-127 -231,-130 -8,-2 -116,54 -240,125 l -224,130 -3,265 -2,265 227,131 c 130,75 234,129 243,125 8,-3 113,-62 232,-131 z m 980,0 218,-125 -2,-265 -3,-265 -223,-129 c -123,-71 -227,-129 -232,-129 -5,0 -109,58 -232,129 l -223,129 -3,265 -2,265 227,131 c 130,75 234,129 243,125 8,-3 113,-62 232,-131 z m 980,0 218,-125 -2,-265 -3,-265 -223,-129 c -123,-71 -227,-129 -232,-129 -5,0 -109,58 -232,129 l -223,129 -3,265 -2,265 227,131 c 130,75 234,129 243,125 8,-3 113,-62 232,-131 z m 980,0 218,-125 -2,-265 -3,-265 -215,-125 c -118,-69 -222,-127 -231,-130 -8,-2 -116,54 -240,125 l -224,130 -3,265 -2,265 227,131 c 130,75 234,129 243,125 8,-3 113,-62 232,-131 z m 980,0 218,-125 -2,-265 -3,-265 -223,-129 c -123,-71 -227,-129 -232,-129 -5,0 -109,58 -232,129 l -223,129 -3,265 -2,265 227,131 c 130,75 234,129 243,125 8,-3 113,-62 232,-131 z m 980,0 218,-125 -2,-265 -3,-265 -224,-130 c -124,-71 -232,-127 -240,-125 -9,3 -113,61 -231,130 l -215,125 -3,265 -2,265 227,131 c 130,75 234,129 243,125 8,-3 113,-62 232,-131 z m 980,0 218,-125 -2,-266 -3,-266 -220,-127 c -121,-71 -226,-128 -233,-128 -6,-1 -112,57 -235,128 l -222,129 -3,265 -2,265 227,131 c 130,75 234,129 243,125 8,-3 113,-62 232,-131 z M 3692,991 3915,862 V 595 328 L 3692,199 C 3569,128 3464,70 3460,70 c -5,0 -109,58 -232,129 l -223,130 v 266 267 l 220,128 c 121,71 225,129 232,129 6,1 112,-57 235,-128 z m 980,0 223,-129 V 595 328 L 4672,199 C 4549,128 4444,70 4440,70 c -5,0 -109,58 -232,129 l -223,130 v 266 267 l 220,128 c 121,71 225,129 232,129 6,1 112,-57 235,-128 z m 980,0 223,-129 V 595 329 L 5652,199 C 5529,128 5425,70 5420,70 c -5,0 -109,58 -232,129 l -223,130 v 266 267 l 220,128 c 121,71 225,129 232,129 6,1 112,-57 235,-128 z m 980,0 223,-129 V 595 329 L 6632,199 C 6509,128 6405,70 6400,70 c -5,0 -109,58 -232,129 l -223,130 v 266 267 l 220,128 c 121,71 225,129 232,129 6,1 112,-57 235,-128 z m 980,0 223,-129 V 595 329 L 7612,199 C 7489,128 7385,70 7380,70 c -5,0 -109,58 -232,129 l -223,130 v 266 267 l 220,128 c 121,71 225,129 232,129 6,1 112,-57 235,-128 z m 980,0 223,-129 V 595 329 L 8592,199 C 8469,128 8365,70 8360,70 c -4,0 -109,58 -232,129 l -223,129 v 267 267 l 220,128 c 121,71 225,129 232,129 6,1 112,-57 235,-128 z m 980,0 223,-129 V 595 329 L 9572,199 C 9449,128 9345,70 9340,70 c -4,0 -109,58 -232,129 l -223,129 v 267 267 l 220,128 c 121,71 225,129 232,129 6,1 112,-57 235,-128 z"
       id="path4"
       style="fill:#b2b2b2;fill-opacity:1;stroke:none;stroke-opacity:1" />
    <path
       d="m -6121.1491,17159.481 -253,-147 -2,-285 -3,-284 -240,-138 -240,-138 -5,-286 -5,-286 -242,-140 -243,-140 v -283 -282 l -242,-140 -243,-140 -3,-285 -2,-284 -243,-140 -242,-140 -3,-284 -3,-285 -244,-140 -244,-140 -3,-285 -3,-285 -243,-140 -242,-140 v -300 -300 l 243,-140 242,-140 3,-285 3,-285 244,-140 244,-140 3,-285.0001 3,-284 242,-140 243,-140 2,-284 3,-285 242,-140 243,-140 v -282 -283.0003 l 243,-140 242,-140 5,-286 5,-286 240,-138 240,-138 3,-284 2,-285 252,-145 c 138,-80 256,-146 263,-148 6,-2 121,60 253,137 l 242,139 241,-139 c 132,-76 244,-139 249,-139 5,0 117,63 249,139 l 241,139 241,-139 c 132,-76 244,-139 249,-139 5,0 117,63 249,139 l 241,139 241,-139 c 132,-76 244,-139 249,-139 5,0 117,63 249,139 l 241,139 241,-139 c 132,-76 244,-139 249,-139 5,0 117,63 249,139 l 241,139 241,-139 c 132,-76 244,-139 249.00001,-139 5,0 117,63 249,139 l 241,139 242,-139 c 132,-77 247,-139 253,-137 7,2 125,68 263,148 l 252,145 2,285 3,284 240,138 239.99999,138 5,286 5,286 243,140 242,140 v 283.0003 282 l 242,140 243,140 3,285 2,284 243,140 242,140 3,284 3,285.0001 244,140 244,140 3,285 3,285 243,140 242,140 v 300 300 l -242,140 -243,140 -3,285 -3,285 -244,140 -244,140 -3,285 -3,284 -242,140 -243,140 -2,284 -3,285 -242,140 -243,140 v 282 283 l -242,140 -243,140 -5,286 -5,286 -239.99999,138 -240,138 -3,284 -2,285 -252,145 c -138,80 -256,146 -263,148 -6,2 -121,-60 -253,-137 l -242,-139 -241,139 c -132,76 -244,139 -249,139 -5.00001,0 -117.00001,-63 -249.00001,-139 l -241,-139 -241,139 c -132,76 -244,139 -249,139 -5,0 -117,-63 -249,-139 l -241,-139 -241,139 c -132,76 -244,139 -249,139 -5,0 -117,-63 -249,-139 l -241,-139 -241,139 c -132,76 -244,139 -249,139 -5,0 -117,-63 -249,-139 l -241,-139 -241,139 c -132,76 -244,139 -249,139 -5,0 -117,-63 -249,-139 l -241,-139 -241,139 c -132,76 -246,139 -252,138 -7,0 -126,-67 -264,-147 z m 499,-51 223,-129 v -267 -267 l -223,-129 c -123,-71 -227,-129 -232,-129 -4,0 -109,58 -232,129 l -223,129 v 267 266 l 220,129 c 121,71 225,129 232,129 6,1 112,-57 235,-128 z m 980,0 223,-129 v -267 -267 l -223,-129 c -123,-71 -227,-129 -232,-129 -4,0 -109,58 -232,129 l -223,129 v 267 266 l 220,129 c 121,71 225,129 232,129 6,1 112,-57 235,-128 z m 980,0 223,-130 v -266 -267 l -223,-129 c -123,-71 -227,-129 -232,-129 -5,0 -109,58 -232,129 l -223,129 v 267 266 l 220,129 c 121,71 225,129 232,129 6,1 112,-57 235,-128 z m 980,0 223,-130 v -266 -267 l -223,-129 c -123,-71 -227,-129 -232,-129 -5,0 -109,58 -232,129 l -223,129 v 267 266 l 220,129 c 121,71 225,129 232,129 6,1 112,-57 235,-128 z m 980,0 223,-130 v -266 -267 l -223,-129 c -123,-71 -227,-129 -232,-129 -5,0 -109,58 -232,129 l -223,129 v 267 266 l 220,129 c 121,71 225,129 232,129 6,1 112,-57 235,-128 z m 980.00001,0 223,-130 v -266 -267 l -223,-129 c -123,-71 -228,-129 -232,-129 -5.00001,0 -109.00001,58 -232.00001,129 l -223,129 v 267 267 l 220,128 c 121,71 225,129 232,129 6.00001,1 112.00001,-57 235.00001,-128 z m 980,0 223,-130 v -266 -267 l -223,-129 c -123,-71 -228,-129 -232,-129 -5,0 -109,58 -232,129 l -223,129 v 267 267 l 220,128 c 121,71 225,129 232,129 6,1 112,-57 235,-128 z m -6369.00001,-850 222,-129 v -267 -266 l -227,-131 -228,-131 -227,131 -228,131 v 267 268 l 220,127 c 121,71 226,128 233,128 6,1 112,-57 235,-128 z m 980,0 222,-129 v -267 -266 l -227,-131 -228,-131 -227,131 -228,131 v 267 266 l 220,128 c 121,71 226,129 233,129 6,1 112,-57 235,-128 z m 979,0 223,-129 v -266 -267 l -227,-131 -228,-131 -227,131 -228,131 v 267 266 l 220,128 c 121,71 225,129 232,129 6,1 112,-57 235,-128 z m 980,0 223,-129 v -266 -267 l -227,-131 -228,-131 -227,131 -228,131 v 267 266 l 220,128 c 121,71 225,129 232,129 6,1 112,-57 235,-128 z m 981,0 222,-129 v -267 -266 l -227,-131 -228,-131 -227,131 -228,131 v 267 266 l 220,128 c 121,71 226,129 233,129 6,1 112,-57 235,-128 z m 979,0 223,-129 v -266 -267 l -227,-131 -228,-131 -227,131 -228,131 v 267 266 l 220,128 c 121,71 225,129 232,129 6,1 112,-57 235,-128 z m 980.00001,0 223,-129 v -266 -267 l -227,-131 -228,-131 -227,131 -228,131 v 266 267 l 220,128 c 121,71 225,129 232,129 6,1 112,-57 235,-128 z m 983,0 219.99999,-127 v -268 -267 l -226.99999,-131 -228,-131 -227,131 -228,131 v 266 267 l 220,128 c 121,71 227,129 235,129 8,0 114,-57 235,-128 z m -7300.00001,-878 170,-99 3,-265 2,-265 -230,-133 -230,-132 -230,132 -230,133 v 266 l 1,265 227,131 227,131 60,-33 c 33,-18 137,-77 230,-131 z m 8015,-363 v -266 l -230,-133 -230,-132 -229.99999,132 -230,133 2,265 3,265 228,132 227.99999,132 229,-132 229,-131 z m -7085,392 220,-128 3,-265 2,-265 -230,-133 -230,-132 -230,133 -230,133 2,264 3,265 220,128 c 121,70 227,127 235,128 8,0 114,-58 235,-128 z m 980,0 220,-128 3,-265 2,-265 -230,-133 -230,-132 -230,133 -230,133 2,264 3,265 220,128 c 121,70 227,127 235,127 8,0 114,-57 235,-127 z m 980,0 220,-128 3,-265 2,-265 -230,-133 -230,-132 -230,132 -230,133 2,265 3,265 220,128 c 121,70 227,127 235,127 8,0 114,-57 235,-127 z m 980,0 220,-128 3,-265 2,-265 -230,-133 -230,-132 -230,132 -230,133 2,265 3,265 220,128 c 121,70 227,127 235,127 8,0 114,-57 235,-127 z m 980,0 220,-128 3,-265 2,-265 -230,-133 -230,-132 -230,132 -230,133 2,265 3,265 220,128 c 121,70 227,127 235,127 8,0 114,-57 235,-127 z m 980.00001,0 220,-128 3,-265 2,-264 -230,-133 -230,-133 -230.00001,132 -230,133 2,265 3,265 220,128 c 121,70 227,128 235.00001,128 8,-1 114,-58 235,-128 z m 980,0 220,-128 3,-265 2,-264 -230,-133 -230,-133 -230,132 -230,133 2,265 3,265 220,128 c 121,70 227,128 235,128 8,-1 114,-58 235,-128 z m -7352.00001,-847 227,-130 v -265 -265 l -230,-132 -229,-132 -231,132 -230,132 v 265 265 l 228,132 c 125,72 230,131 233,130 3,-1 108,-60 232,-132 z m 980,0 227,-130 v -265 -265 l -230,-132 -229,-132 -231,132 -230,132 v 265 l 1,265 227,132 c 125,72 230,130 233,130 3,-1 108,-60 232,-132 z m 980,0 227,-130 v -265 -265 l -230,-132 -229,-132 -231,132 -230,132 v 265 l 1,265 227,132 c 125,72 230,130 233,130 3,-1 108,-60 232,-132 z m 980,0 227,-130 v -265 -265 l -230,-132 -230,-133 -230,133 -230,132 v 265 l 1,265 227,132 c 125,72 230,130 233,130 3,-1 107,-60 232,-132 z m 980,0 227,-130 v -265 -265 l -230,-132 -230,-133 -230,133 -230,132 v 265 265 l 228,131 c 125,73 230,131 233,130 3,0 107,-59 232,-131 z m 980,0 227,-130 v -265 -265 l -230,-132 -230,-133 -230,133 -230,132 v 265 265 l 228,131 c 125,73 230,131 233,130 3,0 107,-59 232,-131 z m 980,0 226,-130 1,-265 v -265 l -230,-132 -230,-133 -230,133 -230,132 v 265 265 l 228,131 c 125,73 230,131 233,130 3,0 108,-59 232,-131 z m 980.00001,0 226,-130 1,-265 v -265 l -230,-132 -231,-132 -229,132 -230,132 v 265 265 l 228,132 c 125,72 230,130 233,130 3,-1 108,-60 232,-132 z m 980,0 225.99999,-130 1,-265 v -265 l -229.99999,-132 -231,-132 -229,132 -230,132 v 265 265 l 228,132 c 125,72 230,130 233,130 3,-1 108,-60 232,-132 z m 980.99999,0 226,-130 v -265 -265 l -230,-132 -231,-132 -229,132 -230,132 v 265 265 l 228,132 c 125,72 230,130 234,130 4,-1 109,-60 232,-132 z m -9313,-847 229,-132 v -266 l -1,-265 -229,-132 -230,-131 -228,132 -227,131 -3,266 -2,265 227,132 c 126,72 229,132 231,132 2,0 106,-60 233,-132 z m 979,0 230,-133 v -265 l -1,-265 -230,-132 -229,-131 -228,132 -227,131 -3,265 -2,265 227,132 c 126,73 229,132 231,132 1,1 106,-59 232,-131 z m 980,0 230,-133 v -265 l -1,-265 -230,-132 -229,-131 -228,132 -227,131 -3,265 -2,265 227,132 c 126,73 229,132 231,132 1,1 106,-59 232,-131 z m 980,0 230,-133 v -265 l -1,-265 -230,-132 -229,-131 -228,132 -227,131 -3,265 -2,265 227,132 c 126,73 229,132 231,132 1,1 106,-59 232,-131 z m 980,0 230,-133 -2,-265 -3,-265 -227,-131 -228,-132 -227,132 -228,131 -3,265 -2,265 227,132 c 126,73 229,132 231,132 1,1 106,-59 232,-131 z m 980,0 230,-133 -2,-265 -3,-265 -227,-131 -228,-132 -227,132 -228,131 -3,265 -2,265 227,132 c 126,73 229,132 231,132 1,1 106,-59 232,-131 z m 980,0 230,-133 -2,-265 -3,-265 -227,-131 -228,-132 -227,132 -228,131 -3,265 -2,265 227,132 c 126,73 229,132 231,132 1,1 106,-59 232,-131 z m 980.00001,0 230,-133 -2,-265 -3,-265 -227,-131 -228,-132 -229.00001,131 -230,132 -1,265 v 265 l 228,132 c 125,73 228,132 230,132 1,1 106.00001,-59 232.00001,-131 z m 980,0 230,-133 -2,-265 -3,-265 -227,-131 -228,-132 -229,131 -230,132 -1,265 v 265 l 228,132 c 125,73 228,132 230,132 1,1 106,-59 232,-131 z m 979.99999,0 230,-133 -2,-265 -3,-265 -227,-131 -228,-132 -228.99999,131 -230,132 -1,265 v 265 l 228,132 c 124.99999,73 227.99999,132 229.99999,132 1,1 106,-59 232,-131 z m 982,0 228,-132 -2,-265 -3,-266 -227,-131 -228,-132 -230,131 -229,132 -1,265 v 266 l 228,131 c 125,73 229,132 231,133 2,0 107,-59 233,-132 z m -10280,-855 218,-126 -2,-265 -3,-266 -220,-127 c -121,-71 -227,-128 -235,-128 -8,0 -114,58 -235,128 l -220,128 -3,266 -2,265 227,131 c 126,72 234,129 242,126 8,-3 112,-62 233,-132 z m 970,6 228,-132 -2,-265 -3,-266 -220,-127 c -121,-71 -227,-128 -235,-128 -8,0 -114,58 -235,128 l -220,128 -3,265 -2,265 227,131 c 126,73 230,132 232,132 2,0 107,-59 233,-131 z m 980,0 228,-132 -2,-265 -3,-266 -220,-127 c -121,-71 -227,-128 -235,-128 -8,0 -114,58 -235,128 l -220,128 -3,265 -2,265 227,131 c 126,73 230,132 232,132 2,0 107,-59 233,-131 z m 980,0 228,-132 -2,-265 -3,-266 -220,-127 c -121,-71 -227,-128 -235,-128 -8,0 -114,58 -235,128 l -220,128 -3,265 -2,265 227,131 c 126,73 230,132 232,132 2,0 107,-59 233,-131 z m 980,0 228,-132 -2,-265 -3,-265 -220,-128 c -121,-70 -227,-128 -235,-128 -8,0 -114,58 -235,128 l -220,128 -3,265 -2,265 227,131 c 126,73 230,132 232,132 2,0 107,-59 233,-131 z m 980,0 228,-132 -2,-265 -3,-265 -220,-128 c -121,-70 -227,-128 -235,-128 -8,0 -114,58 -235,128 l -220,128 -3,265 -2,265 227,131 c 126,73 230,132 232,132 2,0 107,-59 233,-131 z m 980,0 228,-132 -2,-265 -3,-265 -220,-128 c -121,-70 -227,-128 -235,-128 -8,0 -114,58 -235,128 l -220,128 -3,265 -2,265 227,131 c 126,73 230,132 232,132 2,0 107,-59 233,-131 z m 980,0 228,-132 -2,-265 -3,-265 -220,-128 c -121,-70 -227,-128 -235,-128 -8,0 -114,58 -235,128 l -220,128 -3,265 -2,265 227,131 c 126,73 230,132 232,132 2,0 107,-59 233,-131 z m 980.00001,0 228,-132 -2,-265 -3,-265 -220,-128 c -121,-70 -227,-128 -235,-128 -8,0 -114,57 -235,128 l -220,127 -3,266 -2,265 227,131 c 126,73 230,132 232,132 2,0 107,-59 233,-131 z m 980,0 227.99999,-132 -2,-265 -3,-265 -219.99999,-128 c -121,-70 -227,-128 -235,-128 -8,0 -114,57 -235,128 l -220,127 -3,266 -2,265 227,131 c 126,73 230,132 232,132 2,0 107,-59 233,-131 z m 979.99999,0 228,-132 -2,-265 -3,-265 -220,-128 c -121,-70 -227,-128 -235,-128 -8,0 -114,57 -235,128 l -220,127 -3,266 -2,265 227,131 c 126,73 230,132 232,132 2,0 107,-59 233,-131 z m 990,-6 218,-125 -2,-265 -3,-266 -220,-128 c -121,-70 -227,-128 -235,-128 -8,0 -114,57 -235,128 l -220,127 -3,266 -2,265 227,132 c 129,74 234,129 243,125 8,-3 113,-62 232,-131 z m -11280,-842 223,-130 v -266 -266 l -225,-130 c -123,-72 -231,-128 -240,-126 -8,3 -112,61 -230,130 l -215,125 v 267 267 l 220,128 c 121,71 225,129 232,129 6,1 112,-57 235,-128 z m 980,0 223,-130 v -266 -266 l -223,-130 c -123,-71 -227,-129 -231,-129 -5,0 -110,59 -234,131 l -227,131 v 263 263 l 223,130 c 122,72 227,130 234,131 6,1 112,-57 235,-128 z m 980,0 223,-130 v -266 -266 l -223,-130 c -123,-71 -227,-129 -231,-129 -5,0 -110,59 -234,131 l -227,131 v 263 263 l 223,130 c 122,72 227,130 234,131 6,1 112,-57 235,-128 z m 980,0 223,-130 v -266 -266 l -223,-130 c -123,-71 -227,-129 -231,-129 -5,0 -110,59 -234,131 l -227,131 v 263 263 l 223,130 c 122,72 227,130 234,131 6,1 112,-57 235,-128 z m 980,0 223,-130 v -266 -266 l -223,-130 c -123,-71 -227,-129 -231,-129 -5,0 -110,59 -234,131 l -227,131 v 263 263 l 223,130 c 122,72 227,130 234,131 6,1 112,-57 235,-128 z m 980,0 223,-130 v -266 -266 l -223,-130 c -123,-71 -228,-129 -232,-129 -4,0 -109,58 -232,129 l -223,130 v 266 266 l 220,129 c 121,70 225,129 232,129 6,1 112,-57 235,-128 z m 980,0 223,-130 v -266 -266 l -223,-130 c -123,-71 -228,-129 -232,-129 -4,0 -109,58 -232,129 l -223,130 v 266 266 l 220,129 c 121,70 225,129 232,129 6,1 112,-57 235,-128 z m 980,0 223,-130 v -266 -266 l -223,-130 c -123,-71 -228,-129 -232,-129 -4,0 -109,58 -232,129 l -223,130 v 266 266 l 220,129 c 121,70 225,129 232,129 6,1 112,-57 235,-128 z m 981.00001,-2 227,-131 v -263 -263 l -227,-131 c -124,-72 -229,-131 -234.00001,-131 -4,0 -108,58 -231,129 l -223,130 v 266 266 l 220,129 c 121,70 225,129 231,129 6.00001,1 113.00001,-58 237.00001,-130 z m 980,0 227,-131 v -263 -263 l -227,-131 c -124,-72 -229,-131 -234,-131 -4,0 -108,58 -231,129 l -223,130 v 266 266 l 220,129 c 121,70 225,129 231,129 6,1 113,-58 237,-130 z m 979.99999,0 227,-131 v -263 -263 l -227,-131 c -124,-72 -229,-131 -234,-131 -4,0 -108,58 -230.99999,129 l -223,130 v 266 266 l 220,129 c 120.99999,70 224.99999,129 230.99999,129 6,1 113,-58 237,-130 z m 980,0 227,-131 v -263 -263 l -227,-131 c -124,-72 -229,-131 -234,-131 -4,0 -108,58 -231,129 l -223,130 v 266 266 l 220,129 c 121,70 225,129 231,129 6,1 113,-58 237,-130 z m 980,2 222,-129 v -267 -267 l -215,-125 c -118,-69 -222,-127 -230,-130 -9,-2 -117,54 -240,126 l -225,130 v 266 266 l 220,129 c 121,70 226,129 233,129 6,1 112,-57 235,-128 z m -11268,-850 220,-127 3,-266 2,-265 -222,-129 c -123,-70 -230,-128 -238,-128 -8,0 -115,57 -238,128 l -222,128 2,265 3,266 220,128 c 121,70 227,128 235,128 8,0 114,-57 235,-128 z m 980,0 220,-127 3,-266 2,-265 -230,-132 -230,-133 -230,133 -230,132 2,265 3,265 220,128 c 121,70 227,128 235,128 8,0 114,-57 235,-128 z m 980,0 220,-127 3,-266 2,-265 -230,-132 -230,-133 -230,133 -230,132 2,265 3,265 220,128 c 121,70 227,128 235,128 8,0 114,-57 235,-128 z m 980,0 220,-127 3,-266 2,-265 -230,-132 -230,-133 -230,133 -230,132 2,265 3,265 220,128 c 121,70 227,128 235,128 8,0 114,-57 235,-128 z m 980,0 220,-128 3,-265 2,-265 -230,-132 -230,-133 -230,133 -230,132 2,265 3,265 220,128 c 121,70 227,128 235,128 8,0 114,-58 235,-128 z m 980,0 220,-128 3,-265 2,-265 -230,-132 -230,-133 -230,133 -230,132 2,265 3,265 220,128 c 121,70 227,128 235,128 8,0 114,-58 235,-128 z m 980,0 220,-128 3,-265 2,-265 -230,-132 -230,-133 -230,133 -230,132 2,265 3,265 220,128 c 121,70 227,128 235,128 8,0 114,-58 235,-128 z m 980,0 220,-128 3,-265 2,-265 -230,-132 -230,-133 -230,133 -230,132 2,265 3,265 220,128 c 121,70 227,128 235,128 8,0 114,-58 235,-128 z m 980.00001,0 220,-128 3,-265 2,-265 -230,-132 -230,-133 -230,133 -230,132 2,265 3,266 220,127 c 121,71 227,128 235,128 8,0 114,-58 235,-128 z m 980,0 219.99999,-128 3,-265 2,-265 -229.99999,-132 -230,-133 -230,133 -230,132 2,265 3,266 220,127 c 121,71 227,128 235,128 8,0 114,-58 235,-128 z m 979.99999,0 220,-128 3,-265 2,-265 -230,-132 -230,-133 -230,133 -230,132 2,265 3,266 220,127 c 121,71 227,128 235,128 8,0 114,-58 235,-128 z m 980,0 220,-128 3,-266 2,-265 -222,-128 c -123,-71 -230,-128 -238,-128 -8,0 -115,58 -238,128 l -222,129 2,265 3,266 220,127 c 121,71 227,128 235,128 8,0 114,-58 235,-128 z m -10292,-846 226,-130 1,-265.0001 v -266 l -230,-132 -231,-133 -230,132 -229,133 2,265 3,266.0001 225,131 c 124,73 227,131 230,130 4,0 108,-59 233,-131 z m 980,0 226,-130 1,-265.0001 v -265 l -230,-133 -230,-132 -230,132 -230,133 2,265 3,265.0001 225,131 c 124,73 227,131 230,130 3,0 108,-59 233,-131 z m 980,0 226,-130 1,-265.0001 v -265 l -230,-133 -230,-132 -230,132 -230,133 2,265 3,265.0001 225,131 c 124,73 227,131 230,130 3,0 108,-59 233,-131 z m 980,0 226,-130 1,-265.0001 v -265 l -230,-133 -230,-132 -230,132 -230,133 2,265 3,265.0001 225,131 c 124,73 227,131 230,130 3,0 108,-59 233,-131 z m 973,2 229,-132 3,-265.0001 2,-265 -230,-133 -230,-132 -230,132 -230,133 2,265 3,265.0001 225,131 c 124,73 225,132 226,133 1,1 104,-59 230,-132 z m 980,0 229,-132 3,-265.0001 2,-265 -230,-133 -230,-132 -230,132 -230,133 2,265 3,265.0001 225,131 c 124,73 225,132 226,133 1,1 104,-59 230,-132 z m 980,0 229,-132 3,-265.0001 2,-265 -230,-133 -230,-132 -230,132 -230,133 2,265 3,265.0001 225,131 c 124,73 225,132 226,133 1,1 104,-59 230,-132 z m 980.00001,0 229,-132 3,-265.0001 2,-265 -230,-133 -230,-132 -230.00001,132 -230,133 v 265 l 1,265.0001 227,131 c 125,73 227,132 228,133 1,1 104.00001,-59 230.00001,-132 z m 980,0 229,-132 3,-265.0001 2,-265 -230,-133 -230,-132 -230,132 -230,133 v 265 l 1,265.0001 227,131 c 125,73 227,132 228,133 1,1 104,-59 230,-132 z m 979.99999,0 229,-132 3,-265.0001 2,-265 -230,-133 -230,-132 -229.99999,132 -230,133 v 265 l 1,265.0001 227,131 c 124.99999,73 226.99999,132 227.99999,133 1,1 104,-59 230,-132 z m 980,0 229,-132 3,-266.0001 2,-265 -229,-133 -230,-132 -231,133 -230,132 v 266 l 1,265.0001 227,131 c 125,73 227,132 228,133 1,1 104,-59 230,-132 z m -9302,-852.0001 226,-130 v -265 -265 l -231,-132 -230,-133 -230,133 -229,132 v 265 265 l 228,132 c 125,72 230,131 234,130 3,-1 108,-60 232,-132 z m 980,0 226,-130 v -265 -265 l -230,-132 -230,-132 -230,132 -229,132 -1,265 v 265 l 228,132 c 125,72 230,131 234,130 3,-1 108,-60 232,-132 z m 980,0 226,-130 v -265 -265 l -230,-132 -230,-132 -230,132 -229,132 -1,265 v 265 l 228,132 c 125,72 230,131 234,130 3,-1 108,-60 232,-132 z m 980,0 226,-130 v -265 -265 l -230,-132 -230,-131 -230,131 -229,132 -1,265 v 265 l 228,132 c 125,72 230,131 234,130 3,-1 108,-60 232,-132 z m 980,0 226,-130 v -265 -265 l -230,-132 -230,-131 -230,131 -230,132 v 265 265 l 228,132 c 125,72 230,131 234,130 3,-1 108,-60 232,-132 z m 980,0 226,-130 v -265 -265 l -230,-132 -230,-131 -230,131 -230,132 v 265 265 l 228,132 c 125,72 230,131 234,130 3,-1 108,-60 232,-132 z m 980,0 226,-130 v -265 l -1,-265 -229,-132 -230,-131 -230,131 -230,132 v 265 265 l 228,132 c 125,72 230,131 234,130 3,-1 108,-60 232,-132 z m 980.00001,0 226,-130 v -265 l -1,-265 -229,-132 -230,-132 -230,132 -230,132 v 265 265 l 228,132 c 125,72 230,131 233,130 4,-1 108,-60 233,-132 z m 980,0 225.99999,-130 v -265 l -1,-265 -228.99999,-132 -230,-132 -230,132 -230,132 v 265 265 l 228,132 c 125,72 230,131 233,130 4,-1 108,-60 233,-132 z m 979.99999,0 226,-130 v -265 -265 l -229,-132 -230,-133 -230,133 -231,132 v 265 265 l 228,132 c 125,72 230,131 233,130 4,-1 108,-60 233,-132 z m -8332,-847 228,-132 -2,-265 -3,-265.0003 -228,-132 -228,-132 -229,132 -229,131 -1,265.0003 v 266 l 228,131 c 125,73 229,133 231,133 2,0 107,-59 233,-132 z m 980,0 228,-132 -2,-265 -3,-265.0003 -220,-128 c -121,-70 -227,-128 -235,-128 -8,1 -114,58 -235,128 l -220,128 -3,265.0003 -2,264 227,132 c 126,73 230,133 232,133 2,0 107,-59 233,-132 z m 980,0 228,-132 -2,-265 -3,-265.0003 -220,-128 c -121,-70 -227,-128 -235,-128 -8,1 -114,58 -235,128 l -220,128 -3,265.0003 -2,264 227,132 c 126,73 230,133 232,133 2,0 107,-59 233,-132 z m 979,0 229,-132 -2,-265 -3,-265.0003 -220,-128 c -121,-70 -227,-127 -235,-127 -8,0 -114,57 -235,127 l -220,128 -3,265.0003 -2,265 227,132 c 126,72 230,131 231,132 2,0 107,-59 233,-132 z m 980,0 229,-132 -2,-265 -3,-265.0003 -220,-128 c -121,-70 -227,-127 -235,-127 -8,0 -114,57 -235,127 l -220,128 -3,265.0003 -2,265 227,132 c 126,72 230,131 231,132 2,0 107,-59 233,-132 z m 980,0 229,-132 -2,-265 -3,-265.0003 -220,-128 c -121,-70 -227,-127 -235,-127 -8,0 -114,57 -235,127 l -220,128 -3,265.0003 -2,265 227,132 c 126,72 230,131 231,132 2,0 107,-59 233,-132 z m 980.00001,0 229,-133 -2,-264 -3,-265.0003 -220,-128 c -121,-70 -227,-127 -235,-127 -8.00001,0 -114.00001,57 -235.00001,127 l -220,128 -3,265.0003 -2,265 227,132 c 126,72 230,132 232,132 2.00001,0 106.00001,-60 232.00001,-132 z m 980,0 229,-133 -2,-264 -3,-265.0003 -220,-128 c -121,-70 -227,-127 -235,-128 -8,0 -114,58 -235,128 l -220,128 -3,265.0003 -2,265 227,132 c 126,72 230,132 232,132 2,0 106,-60 232,-132 z m 979.99999,0 229,-132 v -266 l -1,-265.0003 -229,-131 -229,-132 -227.99999,132 -228,132 -3,265.0003 -2,265 227,132 c 125.99999,72 229.99999,132 231.99999,132 2,0 106,-59 232,-132 z m -7339,-855.0003 218,-125 -2,-265 -3,-265 -222,-129 c -123,-71 -229,-129 -235,-128 -7,0 -112,57 -233,128 l -220,127 -3,266 -2,266 227,131 c 130,75 234,129 243,125 8,-3 113,-62 232,-131 z m 980,0 218,-125 -2,-265 -3,-265 -215,-125 c -118,-69 -222,-127 -231,-130 -8,-2 -116,54 -240,125 l -224,130 -3,265 -2,265 227,131 c 130,75 234,129 243,125 8,-3 113,-62 232,-131 z m 980,0 218,-125 -2,-265 -3,-265 -223,-129 c -123,-71 -227,-129 -232,-129 -5,0 -109,58 -232,129 l -223,129 -3,265 -2,265 227,131 c 130,75 234,129 243,125 8,-3 113,-62 232,-131 z m 980,0 218,-125 -2,-265 -3,-265 -223,-129 c -123,-71 -227,-129 -232,-129 -5,0 -109,58 -232,129 l -223,129 -3,265 -2,265 227,131 c 130,75 234,129 243,125 8,-3 113,-62 232,-131 z m 980,0 218,-125 -2,-265 -3,-265 -215,-125 c -118,-69 -222,-127 -231,-130 -8,-2 -116,54 -240,125 l -224,130 -3,265 -2,265 227,131 c 130,75 234,129 243,125 8,-3 113,-62 232,-131 z m 980,0 218,-125 -2,-265 -3,-265 -223,-129 c -123,-71 -227,-129 -232,-129 -5,0 -109,58 -232,129 l -223,129 -3,265 -2,265 227,131 c 130,75 234,129 243,125 8,-3 113,-62 232,-131 z m 980.00001,0 218,-125 -2,-265 -3,-265 -224,-130 c -124,-71 -232,-127 -240,-125 -9,3 -113,61 -231,130 l -215,125 -3,265 -2,265 227,131 c 130,75 234,129 243,125 8,-3 113,-62 232,-131 z m 980,0 217.99999,-125 -2,-266 -3,-266 -219.99999,-127 c -121,-71 -226,-128 -233,-128 -6,-1 -112,57 -235,128 l -222,129 -3,265 -2,265 227,131 c 130,75 234,129 243,125 8,-3 113,-62 232,-131 z m -6380.00001,-842 223,-129 v -267 -267 l -223,-129 c -123,-71 -228,-129 -232,-129 -5,0 -109,58 -232,129 l -223,130 v 266 267 l 220,128 c 121,71 225,129 232,129 6,1 112,-57 235,-128 z m 980,0 223,-129 v -267 -267 l -223,-129 c -123,-71 -228,-129 -232,-129 -5,0 -109,58 -232,129 l -223,130 v 266 267 l 220,128 c 121,71 225,129 232,129 6,1 112,-57 235,-128 z m 980,0 223,-129 v -267 -266 l -223,-130 c -123,-71 -227,-129 -232,-129 -5,0 -109,58 -232,129 l -223,130 v 266 267 l 220,128 c 121,71 225,129 232,129 6,1 112,-57 235,-128 z m 980,0 223,-129 v -267 -266 l -223,-130 c -123,-71 -227,-129 -232,-129 -5,0 -109,58 -232,129 l -223,130 v 266 267 l 220,128 c 121,71 225,129 232,129 6,1 112,-57 235,-128 z m 980,0 223,-129 v -267 -266 l -223,-130 c -123,-71 -227,-129 -232,-129 -5,0 -109,58 -232,129 l -223,130 v 266 267 l 220,128 c 121,71 225,129 232,129 6,1 112,-57 235,-128 z m 980.00001,0 223,-129 v -267 -266 l -223,-130 c -123,-71 -227,-129 -232,-129 -4.00001,0 -109.00001,58 -232.00001,129 l -223,129 v 267 267 l 220,128 c 121,71 225,129 232,129 6.00001,1 112.00001,-57 235.00001,-128 z m 980,0 223,-129 v -267 -266 l -223,-130 c -123,-71 -227,-129 -232,-129 -4,0 -109,58 -232,129 l -223,129 v 267 267 l 220,128 c 121,71 225,129 232,129 6,1 112,-57 235,-128 z"
       id="path4-4"
       style="fill:#b2b2b2;fill-opacity:1;stroke:#b2b2b2;stroke-opacity:1" />
    <path
       d="m -6607.3553,6134.7747 -253,-147 -2,-285 -3,-284 -240,-138 -240,-138 -5,-286 -5,-286 -242,-140 -243,-140 v -283 -282 l -242,-140 -243,-140 -3,-285 -2,-284 -243,-140 -242,-140 -3,-284 -3,-285 -244,-140 -244,-140 -3,-285 -3,-284.9999 -243,-140 -242,-140.00003 v -300 -300 l 243,-140 242,-140.000002 3,-284.999998 3,-285 244,-140 244,-140.00005 3,-285.00002 3,-284 242,-140 243,-140 2,-283.9998 3,-285 242,-140 243,-140 v -282 -283.0003 l 243,-140 242,-140 5,-286 5,-286 240,-138 240,-138 3,-284 2,-285 252,-145 c 138,-80 256,-146 263,-148 6,-2 121,60 253,137 l 242,139 241,-139 c 132,-76 244,-139 249,-139 5,0 117,63 249,139 l 241,139 241,-139 c 132,-76 244,-139 249,-139 5,0 117,63 249,139 l 241,139 241,-139 c 132,-76 244,-139 249,-139 5,0 117,63 249,139 l 241,139 241,-139 c 132,-76 244,-139 249,-139 5,0 117,63 249,139 l 241,139 241,-139 c 132,-76 244,-139 249,-139 5,0 117,63 249,139 l 241.00005,139 242.00001,-139 c 132,-77 247,-139 253,-137 7,2 125,68 263,148 l 251.999988,145 2,285 3,284 240.000022,138 240,138 5,286 5,286 243,140 241.99993,140 v 283.0003 282 l 242,140 243,140 3,285 2,283.9998 243,140 242,140 3,284 3,285.00002 244,140.00005 244,140 3,285 3,284.999998 243,140.000002 242,140 v 300 300 l -242,140.00003 -243,140 -3,284.9999 -3,285 -244,140 -244,140 -3,285 -3,284 -242,140 -243,140 -2,284 -3,285 -242,140 -243,140 v 282 283 l -241.99993,140 -243,140 -5,286 -5,286 -240,138 -240.000022,138 -3,284 -2,285 -251.999988,145 c -138,80 -256,146 -263,148 -6,2 -121,-60 -253,-137 l -242.00001,-139 -241.00005,139 c -132,76 -244,139 -249,139 -5,0 -117,-63 -249,-139 l -241,-139 -241,139 c -132,76 -244,139 -249,139 -5,0 -117,-63 -249,-139 l -241,-139 -241,139 c -132,76 -244,139 -249,139 -5,0 -117,-63 -249,-139 l -241,-139 -241,139 c -132,76 -244,139 -249,139 -5,0 -117,-63 -249,-139 l -241,-139 -241,139 c -132,76 -244,139 -249,139 -5,0 -117,-63 -249,-139 l -241,-139 -241,139 c -132,76 -246,139 -252,138 -7,0 -126,-67 -264,-147 z m 499,-51 223,-129 v -267 -267 l -223,-129 c -123,-71 -227,-129 -232,-129 -4,0 -109,58 -232,129 l -223,129 v 267 266 l 220,129 c 121,71 225,129 232,129 6,1 112,-57 235,-128 z m 980,0 223,-129 v -267 -267 l -223,-129 c -123,-71 -227,-129 -232,-129 -4,0 -109,58 -232,129 l -223,129 v 267 266 l 220,129 c 121,71 225,129 232,129 6,1 112,-57 235,-128 z m 980,0 223,-130 v -266 -267 l -223,-129 c -123,-71 -227,-129 -232,-129 -5,0 -109,58 -232,129 l -223,129 v 267 266 l 220,129 c 121,71 225,129 232,129 6,1 112,-57 235,-128 z m 980,0 223,-130 v -266 -267 l -223,-129 c -123,-71 -227,-129 -232,-129 -5,0 -109,58 -232,129 l -223,129 v 267 266 l 220,129 c 121,71 225,129 232,129 6,1 112,-57 235,-128 z m 980,0 223,-130 v -266 -267 l -223,-129 c -123,-71 -227,-129 -232,-129 -5,0 -109,58 -232,129 l -223,129 v 267 266 l 220,129 c 121,71 225,129 232,129 6,1 112,-57 235,-128 z m 980,0 223.00006,-130 v -266 -267 l -223.00006,-129 c -123,-71 -228,-129 -232,-129 -5,0 -109,58 -232,129 l -223,129 v 267 267 l 220,128 c 121,71 225,129 232,129 6,1 112,-57 235,-128 z m 980.00006,0 222.9999875,-130 v -266 -267 l -222.9999875,-129 c -123,-71 -228,-129 -232,-129 -5,0 -109,58 -232,129 l -223.00001,129 v 267 267 l 220.00001,128 c 121,71 225,129 232,129 6,1 112,-57 235,-128 z m -6369.00006,-850 222,-129 v -267 -266 l -227,-131 -228,-131 -227,131 -228,131 v 267 268 l 220,127 c 121,71 226,128 233,128 6,1 112,-57 235,-128 z m 980,0 222,-129 v -267 -266 l -227,-131 -228,-131 -227,131 -228,131 v 267 266 l 220,128 c 121,71 226,129 233,129 6,1 112,-57 235,-128 z m 979,0 223,-129 v -266 -267 l -227,-131 -228,-131 -227,131 -228,131 v 267 266 l 220,128 c 121,71 225,129 232,129 6,1 112,-57 235,-128 z m 980,0 223,-129 v -266 -267 l -227,-131 -228,-131 -227,131 -228,131 v 267 266 l 220,128 c 121,71 225,129 232,129 6,1 112,-57 235,-128 z m 981,0 222,-129 v -267 -266 l -227,-131 -228,-131 -227,131 -228,131 v 267 266 l 220,128 c 121,71 226,129 233,129 6,1 112,-57 235,-128 z m 979,0 223,-129 v -266 -267 l -227,-131 -228,-131 -227,131 -228,131 v 267 266 l 220,128 c 121,71 225,129 232,129 6,1 112,-57 235,-128 z m 980.00006,0 223,-129 v -266 -267 l -227,-131 -228.00001,-131 -227.00005,131 -228,131 v 266 267 l 220,128 c 121,71 225.00005,129 232.00005,129 6,1 112,-57 235.00001,-128 z m 983.00001,0 220,-127 v -268 -267 l -227,-131 -228.000022,-131 -226.999988,131 -228,131 v 266 267 l 220,128 c 120.999988,71 226.999988,129 234.999988,129 8,0 114.000022,-57 235.000022,-128 z m -7300.00007,-878 170,-99 3,-265 2,-265 -230,-133 -230,-132 -230,132 -230,133 v 266 l 1,265 227,131 227,131 60,-33 c 33,-18 137,-77 230,-131 z m 8015.00007,-363 v -266 l -230,-133 -230,-132 -230,132 -230.000022,133 2,265 3,265 228.000022,132 228,132 229,-132 229,-131 z m -7085.00007,392 220,-128 3,-265 2,-265 -230,-133 -230,-132 -230,133 -230,133 2,264 3,265 220,128 c 121,70 227,127 235,128 8,0 114,-58 235,-128 z m 980,0 220,-128 3,-265 2,-265 -230,-133 -230,-132 -230,133 -230,133 2,264 3,265 220,128 c 121,70 227,127 235,127 8,0 114,-57 235,-127 z m 980,0 220,-128 3,-265 2,-265 -230,-133 -230,-132 -230,132 -230,133 2,265 3,265 220,128 c 121,70 227,127 235,127 8,0 114,-57 235,-127 z m 980,0 220,-128 3,-265 2,-265 -230,-133 -230,-132 -230,132 -230,133 2,265 3,265 220,128 c 121,70 227,127 235,127 8,0 114,-57 235,-127 z m 980,0 220,-128 3,-265 2,-265 -230,-133 -230,-132 -230,132 -230,133 2,265 3,265 220,128 c 121,70 227,127 235,127 8,0 114,-57 235,-127 z m 980,0 220.00006,-128 3,-265 2,-264 -230.00006,-133 -230,-133 -230,132 -230,133 2,265 3,265 220,128 c 121,70 227,128 235,128 8,-1 114,-58 235,-128 z m 980.00006,0 219.9999875,-128 2.9999999,-265 2.00000033,-264 -229.99998773,-133 -230,-133 -230,132 -230.00001,133 2,265 3,265 220.00001,128 c 121,70 227,128 235,128 8,-1 114,-58 235,-128 z m -7352.00006,-847 227,-130 v -265 -265 l -230,-132 -229,-132 -231,132 -230,132 v 265 265 l 228,132 c 125,72 230,131 233,130 3,-1 108,-60 232,-132 z m 980,0 227,-130 v -265 -265 l -230,-132 -229,-132 -231,132 -230,132 v 265 l 1,265 227,132 c 125,72 230,130 233,130 3,-1 108,-60 232,-132 z m 980,0 227,-130 v -265 -265 l -230,-132 -229,-132 -231,132 -230,132 v 265 l 1,265 227,132 c 125,72 230,130 233,130 3,-1 108,-60 232,-132 z m 980,0 227,-130 v -265 -265 l -230,-132 -230,-133 -230,133 -230,132 v 265 l 1,265 227,132 c 125,72 230,130 233,130 3,-1 107,-60 232,-132 z m 980,0 227,-130 v -265 -265 l -230,-132 -230,-133 -230,133 -230,132 v 265 265 l 228,131 c 125,73 230,131 233,130 3,0 107,-59 232,-131 z m 980,0 227,-130 v -265 -265 l -230,-132 -230,-133 -230,133 -230,132 v 265 265 l 228,131 c 125,73 230,131 233,130 3,0 107,-59 232,-131 z m 980,0 226,-130 1,-265 v -265 l -230,-132 -230,-133 -230,133 -230,132 v 265 265 l 228,131 c 125,73 230,131 233,130 3,0 108,-59 232,-131 z m 980.00006,0 226,-130 1,-265 v -265 l -230,-132 -231.00001,-132 -229.00005,132 -230,132 v 265 265 l 228,132 c 125,72 230.00005,130 233.00005,130 3,-1 108,-60 232.00001,-132 z m 980.00001,0 226,-130 1,-265 v -265 l -230,-132 -231.000022,-132 -228.999988,132 -230,132 v 265 265 l 228,132 c 124.999988,72 229.999988,130 232.999988,130 3,-1 108.000022,-60 232.000022,-132 z m 980.99993,0 226,-130 v -265 -265 l -230,-132 -231,-132 -228.99993,132 -230,132 v 265 265 l 228,132 c 125,72 229.99993,130 233.99993,130 4,-1 109,-60 232,-132 z m -9313,-847 229,-132 v -266 l -1,-265 -229,-132 -230,-131 -228,132 -227,131 -3,266 -2,265 227,132 c 126,72 229,132 231,132 2,0 106,-60 233,-132 z m 979,0 230,-133 v -265 l -1,-265 -230,-132 -229,-131 -228,132 -227,131 -3,265 -2,265 227,132 c 126,73 229,132 231,132 1,1 106,-59 232,-131 z m 980,0 230,-133 v -265 l -1,-265 -230,-132 -229,-131 -228,132 -227,131 -3,265 -2,265 227,132 c 126,73 229,132 231,132 1,1 106,-59 232,-131 z m 980,0 230,-133 v -265 l -1,-265 -230,-132 -229,-131 -228,132 -227,131 -3,265 -2,265 227,132 c 126,73 229,132 231,132 1,1 106,-59 232,-131 z m 980,0 230,-133 -2,-265 -3,-265 -227,-131 -228,-132 -227,132 -228,131 -3,265 -2,265 227,132 c 126,73 229,132 231,132 1,1 106,-59 232,-131 z m 980,0 230,-133 -2,-265 -3,-265 -227,-131 -228,-132 -227,132 -228,131 -3,265 -2,265 227,132 c 126,73 229,132 231,132 1,1 106,-59 232,-131 z m 980,0 230,-133 -2,-265 -3,-265 -227,-131 -228,-132 -227,132 -228,131 -3,265 -2,265 227,132 c 126,73 229,132 231,132 1,1 106,-59 232,-131 z m 980,0 230.00006,-133 -2,-265 -3,-265 -227.00006,-131 -228,-132 -229,131 -230,132 -1,265 v 265 l 228,132 c 125,73 228,132 230,132 1,1 106,-59 232,-131 z m 980.00006,0 229.99998773,-133 -2.00000033,-265 -2.9999999,-265 -226.9999875,-131 -228,-132 -229,131 -230.00001,132 -1,265 v 265 l 228.00001,132 c 125,73 228,132 230,132 1,1 106,-59 232,-131 z m 980.00001,0 230,-133 -2,-265 -3,-265 -227,-131 -228,-132 -229,131 -230.000022,132 -1,265 v 265 l 228.000022,132 c 125,73 228,132 230,132 1,1 106,-59 232,-131 z m 981.99993,0 228,-132 -2,-265 -3,-266 -227,-131 -228,-132 -230,131 -229,132 -1,265 v 266 l 228,131 c 125,73 229,132 231,133 2,0 107,-59 233,-132 z m -10280,-855 218,-126 -2,-265 -3,-265.9999 -220,-127 c -121,-71.00003 -227,-128.00003 -235,-128.00003 -8,0 -114,58 -235,128.00003 l -220,128 -3,265.9999 -2,265 227,131 c 126,72 234,129 242,126 8,-3 112,-62 233,-132 z m 970,6 228,-132 -2,-265 -3,-265.9999 -220,-127 c -121,-71.00003 -227,-128.00003 -235,-128.00003 -8,0 -114,58 -235,128.00003 l -220,128 -3,264.9999 -2,265 227,131 c 126,73 230,132 232,132 2,0 107,-59 233,-131 z m 980,0 228,-132 -2,-265 -3,-265.9999 -220,-127 c -121,-71.00003 -227,-128.00003 -235,-128.00003 -8,0 -114,58 -235,128.00003 l -220,128 -3,264.9999 -2,265 227,131 c 126,73 230,132 232,132 2,0 107,-59 233,-131 z m 980,0 228,-132 -2,-265 -3,-265.9999 -220,-127 c -121,-71.00003 -227,-128.00003 -235,-128.00003 -8,0 -114,58 -235,128.00003 l -220,128 -3,264.9999 -2,265 227,131 c 126,73 230,132 232,132 2,0 107,-59 233,-131 z m 980,0 228,-132 -2,-265 -3,-264.9999 -220,-128 c -121,-70.00003 -227,-128.00003 -235,-128.00003 -8,0 -114,58 -235,128.00003 l -220,128 -3,264.9999 -2,265 227,131 c 126,73 230,132 232,132 2,0 107,-59 233,-131 z m 980,0 228,-132 -2,-265 -3,-264.9999 -220,-128 c -121,-70.00003 -227,-128.00003 -235,-128.00003 -8,0 -114,58 -235,128.00003 l -220,128 -3,264.9999 -2,265 227,131 c 126,73 230,132 232,132 2,0 107,-59 233,-131 z m 980,0 228,-132 -2,-265 -3,-264.9999 -220,-128 c -121,-70.00003 -227,-128.00003 -235,-128.00003 -8,0 -114,58 -235,128.00003 l -220,128 -3,264.9999 -2,265 227,131 c 126,73 230,132 232,132 2,0 107,-59 233,-131 z m 980,0 228,-132 -2,-265 -3,-264.9999 -220,-128 c -121,-70.00003 -227,-128.00003 -235,-128.00003 -8,0 -114,58 -235,128.00003 l -220,128 -3,264.9999 -2,265 227,131 c 126,73 230,132 232,132 2,0 107,-59 233,-131 z m 980.00006,0 228,-132 -2,-265 -3,-264.9999 -220,-128 c -121.00001,-70.00003 -227.00001,-128.00003 -235.00001,-128.00003 -8,0 -114.00005,57 -235.00005,128.00003 l -220,127 -3,265.9999 -2,265 227,131 c 126,73 230.00005,132 232.00005,132 2,0 107,-59 233.00001,-131 z m 980.00001,0 228,-132 -2,-265 -3,-264.9999 -220,-128 c -121,-70.00003 -227.000022,-128.00003 -235.000022,-128.00003 -8,0 -114,57 -234.999988,128.00003 l -220,127 -3,265.9999 -2,265 227,131 c 125.999988,73 229.999988,132 231.999988,132 2,0 107.000022,-59 233.000022,-131 z m 979.99993,0 228,-132 -2,-265 -3,-264.9999 -220,-128 c -121,-70.00003 -227,-128.00003 -235,-128.00003 -7.9999,0 -113.99993,57 -234.99993,128.00003 l -220,127 -3,265.9999 -2,265 227,131 c 126,73 230.00003,132 231.99993,132 2,0 107,-59 233,-131 z m 990,-6 218,-125 -2,-265 -3,-265.9999 -220,-128 c -121,-70.00003 -227,-128.00003 -235,-128.00003 -8,0 -114,57 -235,128.00003 l -220,127 -3,265.9999 -2,265 227,132 c 129,74 234,129 243,125 8,-3 113,-62 232,-131 z m -11280,-841.99993 223,-130 v -266 -266 l -225,-130 c -123,-72 -231,-128.000002 -240,-126.000002 -8,3 -112,61.000002 -230,130.000002 l -215,125 v 267 267 l 220,128 c 121,71.00003 225,129.00003 232,129.00003 6,1 112,-57 235,-128.00003 z m 980,0 223,-130 v -266 -266 l -223,-130 c -123,-71 -227,-129.000002 -231,-129.000002 -5,0 -110,59.000002 -234,131.000002 l -227,131 v 263 263 l 223,130 c 122,72.00003 227,130.00003 234,131.00003 6,1 112,-57 235,-128.00003 z m 980,0 223,-130 v -266 -266 l -223,-130 c -123,-71 -227,-129.000002 -231,-129.000002 -5,0 -110,59.000002 -234,131.000002 l -227,131 v 263 263 l 223,130 c 122,72.00003 227,130.00003 234,131.00003 6,1 112,-57 235,-128.00003 z m 980,0 223,-130 v -266 -266 l -223,-130 c -123,-71 -227,-129.000002 -231,-129.000002 -5,0 -110,59.000002 -234,131.000002 l -227,131 v 263 263 l 223,130 c 122,72.00003 227,130.00003 234,131.00003 6,1 112,-57 235,-128.00003 z m 980,0 223,-130 v -266 -266 l -223,-130 c -123,-71 -227,-129.000002 -231,-129.000002 -5,0 -110,59.000002 -234,131.000002 l -227,131 v 263 263 l 223,130 c 122,72.00003 227,130.00003 234,131.00003 6,1 112,-57 235,-128.00003 z m 980,0 223,-130 v -266 -266 l -223,-130 c -123,-71 -228,-129.000002 -232,-129.000002 -4,0 -109,58.000002 -232,129.000002 l -223,130 v 266 266 l 220,129 c 121,70.00003 225,129.00003 232,129.00003 6,1 112,-57 235,-128.00003 z m 980,0 223,-130 v -266 -266 l -223,-130 c -123,-71 -228,-129.000002 -232,-129.000002 -4,0 -109,58.000002 -232,129.000002 l -223,130 v 266 266 l 220,129 c 121,70.00003 225,129.00003 232,129.00003 6,1 112,-57 235,-128.00003 z m 980,0 223,-130 v -266 -266 l -223,-130 c -123,-71 -228,-129.000002 -232,-129.000002 -4,0 -109,58.000002 -232,129.000002 l -223,130 v 266 266 l 220,129 c 121,70.00003 225,129.00003 232,129.00003 6,1 112,-57 235,-128.00003 z m 981,-2 227.00006,-131 v -263 -263 l -227.00006,-131 c -124,-72 -229,-131.000002 -234,-131.000002 -4,0 -108,58.000002 -231,129.000002 l -223,130 v 266 266 l 220,129 c 121,70.00003 225,129.00003 231,129.00003 6,1 113,-58 237,-130.00003 z m 980.00006,0 226.99998773,-131 v -263 -263 l -226.99998773,-131 c -124,-72 -229,-131.000002 -234,-131.000002 -4,0 -108,58.000002 -231,129.000002 l -223.00001,130 v 266 266 l 220.00001,129 c 121,70.00003 225,129.00003 231,129.00003 6,1 113,-58 237,-130.00003 z m 980.00001,0 227,-131 v -263 -263 l -227,-131 c -124,-72 -229,-131.000002 -234,-131.000002 -4,0 -108,58.000002 -231,129.000002 l -223.000022,130 v 266 266 l 220.000022,129 c 121,70.00003 225,129.00003 231,129.00003 6,1 113,-58 237,-130.00003 z m 979.99993,0 227,-131 v -263 -263 l -227,-131 c -124,-72 -229,-131.000002 -234,-131.000002 -4,0 -108,58.000002 -231,129.000002 l -223,130 v 266 266 l 220,129 c 121,70.00003 225,129.00003 231,129.00003 6,1 113,-58 237,-130.00003 z m 980,2 222,-129 v -267 -267 l -215,-125 c -118,-69 -222,-127.000002 -230,-130.000002 -9,-2 -117,54.000002 -240,126.000002 l -225,130 v 266 266 l 220,129 c 121,70.00003 226,129.00003 233,129.00003 6,1 112,-57 235,-128.00003 z m -11268,-850 220,-127.000002 3,-265.999998 2,-265 -222,-129 c -123,-70 -230,-128 -238,-128 -8,0 -115,57 -238,128 l -222,128 2,265 3,265.999998 220,128.000002 c 121,70 227,128 235,128 8,0 114,-57 235,-128 z m 980,0 220,-127.000002 3,-265.999998 2,-265 -230,-132 -230,-133 -230,133 -230,132 2,265 3,264.999998 220,128.000002 c 121,70 227,128 235,128 8,0 114,-57 235,-128 z m 980,0 220,-127.000002 3,-265.999998 2,-265 -230,-132 -230,-133 -230,133 -230,132 2,265 3,264.999998 220,128.000002 c 121,70 227,128 235,128 8,0 114,-57 235,-128 z m 980,0 220,-127.000002 3,-265.999998 2,-265 -230,-132 -230,-133 -230,133 -230,132 2,265 3,264.999998 220,128.000002 c 121,70 227,128 235,128 8,0 114,-57 235,-128 z m 980,0 220,-128.000002 3,-264.999998 2,-265 -230,-132 -230,-133 -230,133 -230,132 2,265 3,264.999998 220,128.000002 c 121,70 227,128 235,128 8,0 114,-58 235,-128 z m 980,0 220,-128.000002 3,-264.999998 2,-265 -230,-132 -230,-133 -230,133 -230,132 2,265 3,264.999998 220,128.000002 c 121,70 227,128 235,128 8,0 114,-58 235,-128 z m 980,0 220,-128.000002 3,-264.999998 2,-265 -230,-132 -230,-133 -230,133 -230,132 2,265 3,264.999998 220,128.000002 c 121,70 227,128 235,128 8,0 114,-58 235,-128 z m 980,0 220,-128.000002 3,-264.999998 2,-265 -230,-132 -230,-133 -230,133 -230,132 2,265 3,264.999998 220,128.000002 c 121,70 227,128 235,128 8,0 114,-58 235,-128 z m 980.00006,0 220,-128.000002 3,-264.999998 2,-265 -230,-132 -230.00001,-133 -230.00005,133 -230,132 2,265 3,265.999998 220,127.000002 c 121,71 227.00005,128 235.00005,128 8,0 114,-58 235.00001,-128 z m 980.00001,0 220,-128.000002 3,-264.999998 2,-265 -230,-132 -230.000022,-133 -229.999988,133 -230,132 2,265 3,265.999998 220,127.000002 c 120.999988,71 226.999988,128 234.999988,128 8,0 114.000022,-58 235.000022,-128 z m 979.99993,0 220,-128.000002 3,-264.999998 2,-265 -230,-132 -230,-133 -229.99993,133 -230,132 2,265 3,265.999998 220,127.000002 c 121,71 227.00003,128 234.99993,128 8,0 114,-58 235,-128 z m 980,0 220,-128.000002 3,-265.999998 2,-265 -222,-128 c -123,-71 -230,-128 -238,-128 -8,0 -115,58 -238,128 l -222,129 2,265 3,265.999998 220,127.000002 c 121,71 227,128 235,128 8,0 114,-58 235,-128 z m -10292,-846 226,-130.00005 1,-265.00002 v -266 l -230,-132 -231,-133 -230,132 -229,133 2,265 3,266.00002 225,131.00005 c 124,73 227,131 230,130 4,0 108,-59 233,-131 z m 980,0 226,-130.00005 1,-265.00002 v -265 l -230,-133 -230,-132 -230,132 -230,133 2,265 3,265.00002 225,131.00005 c 124,73 227,131 230,130 3,0 108,-59 233,-131 z m 980,0 226,-130.00005 1,-265.00002 v -265 l -230,-133 -230,-132 -230,132 -230,133 2,265 3,265.00002 225,131.00005 c 124,73 227,131 230,130 3,0 108,-59 233,-131 z m 980,0 226,-130.00005 1,-265.00002 v -265 l -230,-133 -230,-132 -230,132 -230,133 2,265 3,265.00002 225,131.00005 c 124,73 227,131 230,130 3,0 108,-59 233,-131 z m 973,2 229,-132.00005 3,-265.00002 2,-265 -230,-133 -230,-132 -230,132 -230,133 2,265 3,265.00002 225,131.00005 c 124,73 225,132 226,133 1,1 104,-59 230,-132 z m 980,0 229,-132.00005 3,-265.00002 2,-265 -230,-133 -230,-132 -230,132 -230,133 2,265 3,265.00002 225,131.00005 c 124,73 225,132 226,133 1,1 104,-59 230,-132 z m 980,0 229,-132.00005 3,-265.00002 2,-265 -230,-133 -230,-132 -230,132 -230,133 2,265 3,265.00002 225,131.00005 c 124,73 225,132 226,133 1,1 104,-59 230,-132 z m 980,0 229.00006,-132.00005 3,-265.00002 2,-265 -230.00006,-133 -230,-132 -230,132 -230,133 v 265 l 1,265.00002 227,131.00005 c 125,73 227,132 228,133 1,1 104,-59 230,-132 z m 980.00006,0 228.9999875,-132.00005 2.9999999,-265.00002 2.00000033,-265 -229.99998773,-133 -230,-132 -230,132 -230.00001,133 v 265 l 1,265.00002 227.00001,131.00005 c 125,73 227,132 228,133 1,1 104,-59 230,-132 z m 980.00001,0 229,-132.00005 3,-265.00002 2,-265 -230,-133 -230,-132 -230,132 -230.000022,133 v 265 l 1,265.00002 227.000022,131.00005 c 125,73 227,132 228,133 1,1 104,-59 230,-132 z m 979.99993,0 229,-132.00005 3,-266.00002 2,-265 -229,-133 -230,-132 -231,133 -230,132 v 266 l 1,265.00002 227,131.00005 c 125,73 227,132 228,133 1,1 104,-59 230,-132 z m -9302,-852.00007 226,-130 v -264.9998 -265 l -231,-132 -230,-133 -230,133 -229,132 v 265 264.9998 l 228,132 c 125,72 230,131 234,130 3,-1 108,-60 232,-132 z m 980,0 226,-130 v -264.9998 -265 l -230,-132 -230,-132 -230,132 -229,132 -1,265 v 264.9998 l 228,132 c 125,72 230,131 234,130 3,-1 108,-60 232,-132 z m 980,0 226,-130 v -264.9998 -265 l -230,-132 -230,-132 -230,132 -229,132 -1,265 v 264.9998 l 228,132 c 125,72 230,131 234,130 3,-1 108,-60 232,-132 z m 980,0 226,-130 v -264.9998 -265 l -230,-132 -230,-131 -230,131 -229,132 -1,265 v 264.9998 l 228,132 c 125,72 230,131 234,130 3,-1 108,-60 232,-132 z m 980,0 226,-130 v -264.9998 -265 l -230,-132 -230,-131 -230,131 -230,132 v 265 264.9998 l 228,132 c 125,72 230,131 234,130 3,-1 108,-60 232,-132 z m 980,0 226,-130 v -264.9998 -265 l -230,-132 -230,-131 -230,131 -230,132 v 265 264.9998 l 228,132 c 125,72 230,131 234,130 3,-1 108,-60 232,-132 z m 980,0 226,-130 v -264.9998 l -1,-265 -229,-132 -230,-131 -230,131 -230,132 v 265 264.9998 l 228,132 c 125,72 230,131 234,130 3,-1 108,-60 232,-132 z m 980.00006,0 226,-130 v -264.9998 l -1,-265 -229,-132 -230.00001,-132 -230.00005,132 -230,132 v 265 264.9998 l 228,132 c 125,72 230.00005,131 233.00005,130 4,-1 108,-60 233.00001,-132 z m 980.00001,0 226,-130 v -264.9998 l -1,-265 -229,-132 -230.000022,-132 -229.999988,132 -230,132 v 265 264.9998 l 228,132 c 124.999988,72 229.999988,131 232.999988,130 4,-1 108.000022,-60 233.000022,-132 z m 979.99993,0 226,-130 v -264.9998 -265 l -229,-132 -230,-133 -229.99993,133 -231,132 v 265 264.9998 l 228,132 c 125,72 229.99993,131 232.99993,130 4,-1 108,-60 233,-132 z m -8332,-846.9998 228,-132 -2,-265 -3,-265.0003 -228,-132 -228,-132 -229,132 -229,131 -1,265.0003 v 266 l 228,131 c 125,73 229,133 231,133 2,0 107,-59 233,-132 z m 980,0 228,-132 -2,-265 -3,-265.0003 -220,-128 c -121,-70 -227,-128 -235,-128 -8,1 -114,58 -235,128 l -220,128 -3,265.0003 -2,264 227,132 c 126,73 230,133 232,133 2,0 107,-59 233,-132 z m 980,0 228,-132 -2,-265 -3,-265.0003 -220,-128 c -121,-70 -227,-128 -235,-128 -8,1 -114,58 -235,128 l -220,128 -3,265.0003 -2,264 227,132 c 126,73 230,133 232,133 2,0 107,-59 233,-132 z m 979,0 229,-132 -2,-265 -3,-265.0003 -220,-128 c -121,-70 -227,-127 -235,-127 -8,0 -114,57 -235,127 l -220,128 -3,265.0003 -2,265 227,132 c 126,72 230,131 231,132 2,0 107,-59 233,-132 z m 980,0 229,-132 -2,-265 -3,-265.0003 -220,-128 c -121,-70 -227,-127 -235,-127 -8,0 -114,57 -235,127 l -220,128 -3,265.0003 -2,265 227,132 c 126,72 230,131 231,132 2,0 107,-59 233,-132 z m 980,0 229,-132 -2,-265 -3,-265.0003 -220,-128 c -121,-70 -227,-127 -235,-127 -8,0 -114,57 -235,127 l -220,128 -3,265.0003 -2,265 227,132 c 126,72 230,131 231,132 2,0 107,-59 233,-132 z m 980,0 229.00006,-133 -2,-264 -3,-265.0003 -220.00006,-128 c -121,-70 -227,-127 -235,-127 -8,0 -114,57 -235,127 l -220,128 -3,265.0003 -2,265 227,132 c 126,72 230,132 232,132 2,0 106,-60 232,-132 z m 980.00006,0 228.99998773,-133 -2.00000033,-264 -2.9999999,-265.0003 -219.9999875,-128 c -121,-70 -227,-127 -235,-128 -8,0 -114,58 -235,128 l -220.00001,128 -3,265.0003 -2,265 227.00001,132 c 126,72 230,132 232,132 2,0 106,-60 232,-132 z m 980.00001,0 229,-132 v -266 l -1,-265.0003 -229,-131 -229,-132 -228,132 -228.000022,132 -3,265.0003 -2,265 227.000022,132 c 126,72 230,132 232,132 2,0 106,-59 232,-132 z m -7339.00007,-855.0003 218,-125 -2,-265 -3,-265 -222,-129 c -123,-71 -229,-129 -235,-128 -7,0 -112,57 -233,128 l -220,127 -3,266 -2,266 227,131 c 130,75 234,129 243,125 8,-3 113,-62 232,-131 z m 980,0 218,-125 -2,-265 -3,-265 -215,-125 c -118,-69 -222,-127 -231,-130 -8,-2 -116,54 -240,125 l -224,130 -3,265 -2,265 227,131 c 130,75 234,129 243,125 8,-3 113,-62 232,-131 z m 980,0 218,-125 -2,-265 -3,-265 -223,-129 c -123,-71 -227,-129 -232,-129 -5,0 -109,58 -232,129 l -223,129 -3,265 -2,265 227,131 c 130,75 234,129 243,125 8,-3 113,-62 232,-131 z m 980,0 218,-125 -2,-265 -3,-265 -223,-129 c -123,-71 -227,-129 -232,-129 -5,0 -109,58 -232,129 l -223,129 -3,265 -2,265 227,131 c 130,75 234,129 243,125 8,-3 113,-62 232,-131 z m 980,0 218,-125 -2,-265 -3,-265 -215,-125 c -118,-69 -222,-127 -231,-130 -8,-2 -116,54 -240,125 l -224,130 -3,265 -2,265 227,131 c 130,75 234,129 243,125 8,-3 113,-62 232,-131 z m 980,0 218,-125 -2,-265 -3,-265 -223,-129 c -123,-71 -227,-129 -232,-129 -5,0 -109,58 -232,129 l -223,129 -3,265 -2,265 227,131 c 130,75 234,129 243,125 8,-3 113,-62 232,-131 z m 980.00006,0 218,-125 -2,-265 -3,-265 -224,-130 c -124.00001,-71 -232.00001,-127 -240.00001,-125 -9,3 -113.00005,61 -231.00005,130 l -215,125 -3,265 -2,265 227,131 c 130,75 234.00005,129 243.00005,125 8,-3 113,-62 232.00001,-131 z m 980.00001,0 218,-125 -2,-266 -3,-266 -220,-127 c -121,-71 -226.000022,-128 -233.000022,-128 -6,-1 -112,57 -234.999988,128 l -222,129 -3,265 -2,265 227,131 c 129.999988,75 233.999988,129 242.999988,125 8,-3 113.000022,-62 232.000022,-131 z m -6380.00007,-842 223,-129 v -267 -267 l -223,-129 c -123,-71 -228,-129 -232,-129 -5,0 -109,58 -232,129 l -223,130 v 266 267 l 220,128 c 121,71 225,129 232,129 6,1 112,-57 235,-128 z m 980,0 223,-129 v -267 -267 l -223,-129 c -123,-71 -228,-129 -232,-129 -5,0 -109,58 -232,129 l -223,130 v 266 267 l 220,128 c 121,71 225,129 232,129 6,1 112,-57 235,-128 z m 980,0 223,-129 v -267 -266 l -223,-130 c -123,-71 -227,-129 -232,-129 -5,0 -109,58 -232,129 l -223,130 v 266 267 l 220,128 c 121,71 225,129 232,129 6,1 112,-57 235,-128 z m 980,0 223,-129 v -267 -266 l -223,-130 c -123,-71 -227,-129 -232,-129 -5,0 -109,58 -232,129 l -223,130 v 266 267 l 220,128 c 121,71 225,129 232,129 6,1 112,-57 235,-128 z m 980,0 223,-129 v -267 -266 l -223,-130 c -123,-71 -227,-129 -232,-129 -5,0 -109,58 -232,129 l -223,130 v 266 267 l 220,128 c 121,71 225,129 232,129 6,1 112,-57 235,-128 z m 980,0 223.00006,-129 v -267 -266 l -223.00006,-130 c -123,-71 -227,-129 -232,-129 -4,0 -109,58 -232,129 l -223,129 v 267 267 l 220,128 c 121,71 225,129 232,129 6,1 112,-57 235,-128 z m 980.00006,0 222.9999875,-129 v -267 -266 l -222.9999875,-130 c -123,-71 -227,-129 -232,-129 -4,0 -109,58 -232,129 l -223.00001,129 v 267 267 l 220.00001,128 c 121,71 225,129 232,129 6,1 112,-57 235,-128 z"
       id="path4-4-2"
       style="fill:#b2b2b2;fill-opacity:1;stroke:#b2b2b2;stroke-opacity:1" />
    <path
       style="fill:none;stroke:#000000;stroke-width:120;stroke-linecap:round;stroke-linejoin:round;stroke-dasharray:none;stroke-opacity:1;marker-start:url(#Dot);marker-mid:url(#Dot);marker-end:url(#Dot)"
       d="m -3399.4984,6270.2737 -988.3401,587.1328 -982.4688,-581.2614 V 5152.7645 l 984.4258,-569.5188 992.2544,577.3472"
       id="path7995" />
    <path
       style="fill:none;stroke:#000000;stroke-width:120;stroke-linecap:round;stroke-linejoin:round;stroke-dasharray:none;stroke-opacity:1;marker-start:url(#Dot-9);marker-mid:url(#Dot-9);marker-end:url(#Dot-9)"
       d="m 2473.4274,9667.814 -988.3401,587.133 -982.4688,-581.261 V 8550.305 l 984.4258,-569.5182 986.6715,620.3032 -965.7654,-0.764"
       id="path7995-6"
       sodipodi:nodetypes="ccccccc" />
    <path
       style="fill:none;stroke:#000000;stroke-width:120;stroke-linecap:round;stroke-linejoin:round;stroke-dasharray:none;stroke-opacity:1;marker-start:url(#Dot);marker-mid:url(#Dot);marker-end:url(#Dot)"
       d="m -2429.055,6271.7418 3.8448,-1693.693 0.4749,576.7994 490.9577,268.0972 489.6883,-267.0851 2.1377,-573.3289 490.36542,-271.4931 495.95138,270.9798 491.2793,-271.2415 487.12755,265.706 -488.51145,-267.0899 -491.2793,274.0093 1.3839,572.9285 484.35988,276.777 494.88882,-280.1421 -982.0164,-3.5544 982.13872,3.5544 483.39558,269.0709 500.9664,-262.9381 -7.2551,-619.2275 7.2551,617.8436 487.1276,267.0898 494.0472,-271.2414 -8.9952,-619.9806 7.6114,619.9806 487.1273,275.3931 498.1987,-276.777 -4.152,-611.6772"
       id="path12353"
       sodipodi:nodetypes="cccccccccccccccccccccccccccc" />
    <path
       style="fill:none;stroke:#000000;stroke-width:120;stroke-linecap:butt;stroke-linejoin:miter;stroke-dasharray:none;stroke-opacity:1;marker-start:url(#Dot);marker-mid:url(#Dot);marker-end:url(#Dot)"
       d="m 2000.1657,5422.8455 -5.382,576.8579 480.8198,274.1142 6.228,580.5399 485.6355,269.2158 2.9355,582.1176 -2.9355,-582.3622 -485.241,-268.9802 -492.5798,271.4266 -2.202,575.8793"
       id="path17086" />
    <path
       style="fill:none;stroke:#000000;stroke-width:120;stroke-linecap:round;stroke-linejoin:round;stroke-dasharray:none;stroke-opacity:1;marker-start:url(#Dot);marker-mid:url(#Dot);marker-end:url(#Dot-9)"
       d="m 3465.062,4536.9214 484.3845,-257.3594 484.3844,273.0165 503.955,-284.7593 -5.871,-571.476 -488.2987,-278.8882 -493.1918,281.8237 -0.735,580.0387 11.0711,-1706.1097 -11.3186,1125.8183 493.9605,-281.7938 486.3496,-844.9478"
       id="path24170"
       sodipodi:nodetypes="cccccccccccc" />
    <path
       style="fill:none;stroke:#000000;stroke-width:120;stroke-linecap:butt;stroke-linejoin:miter;stroke-dasharray:none;stroke-opacity:1;marker-start:url(#Dot-9);marker-mid:url(#Dot);marker-end:url(#Dot-9)"
       d="m 5916.6342,4287.4365 -5.5357,-1713.2498 985.3259,-2.7674"
       id="path25072" />
  </g>
</svg>
